Topmarks-Bold-kernagic.ufo
<glyph name="exclam" format="1">
  <advance width="779"></advance>
  <unicode hex="0021"></unicode>
  <outline>
    <contour>
      <point x="391" y="-12" type="curve" smooth="yes"></point>
      <point x="295" y="-12"></point>
      <point x="226" y="54"></point>
      <point x="226" y="149" type="curve" smooth="yes"></point>
      <point x="226" y="241"></point>
      <point x="295" y="306"></point>
      <point x="391" y="306" type="curve" smooth="yes"></point>
      <point x="487" y="306"></point>
      <point x="556" y="241"></point>
      <point x="556" y="146" type="curve" smooth="yes"></point>
      <point x="556" y="52"></point>
      <point x="487" y="-12"></point>
    </contour>
    <contour>
      <point x="319" y="498" type="line"></point>
      <point x="228" y="1456" type="line"></point>
      <point x="542" y="1456" type="line"></point>
      <point x="448" y="498" type="line"></point>
    </contour>
  </outline>
</glyph>
<glyph name="quotedbl" format="1">
  <advance width="824"></advance>
  <unicode hex="0022"></unicode>
  <outline>
    <contour>
      <point x="507" y="884" type="line"></point>
      <point x="465" y="1456" type="line"></point>
      <point x="686" y="1456" type="line"></point>
      <point x="656" y="884" type="line"></point>
    </contour>
    <contour>
      <point x="169" y="884" type="line"></point>
      <point x="127" y="1456" type="line"></point>
      <point x="348" y="1456" type="line"></point>
      <point x="318" y="884" type="line"></point>
    </contour>
  </outline>
</glyph>
<glyph name="numbersign" format="1">
  <advance width="1195"></advance>
  <unicode hex="0023"></unicode>
  <outline>
    <contour>
      <point x="160" y="0" type="line"></point>
      <point x="243" y="432" type="line"></point>
      <point x="-47" y="432" type="line"></point>
      <point x="-34" y="579" type="line"></point>
      <point x="268" y="579" type="line"></point>
      <point x="322" y="903" type="line"></point>
      <point x="28" y="903" type="line"></point>
      <point x="44" y="1048" type="line"></point>
      <point x="344" y="1048" type="line"></point>
      <point x="418" y="1456" type="line"></point>
      <point x="573" y="1456" type="line"></point>
      <point x="501" y="1048" type="line"></point>
      <point x="778" y="1048" type="line"></point>
      <point x="849" y="1456" type="line"></point>
      <point x="1009" y="1456" type="line"></point>
      <point x="931" y="1048" type="line"></point>
      <point x="1210" y="1048" type="line"></point>
      <point x="1193" y="903" type="line"></point>
      <point x="907" y="903" type="line"></point>
      <point x="852" y="579" type="line"></point>
      <point x="1136" y="579" type="line"></point>
      <point x="1119" y="432" type="line"></point>
      <point x="829" y="432" type="line"></point>
      <point x="752" y="0" type="line"></point>
      <point x="599" y="0" type="line"></point>
      <point x="672" y="432" type="line"></point>
      <point x="396" y="432" type="line"></point>
      <point x="320" y="0" type="line"></point>
    </contour>
    <contour>
      <point x="419" y="579" type="line"></point>
      <point x="699" y="579" type="line"></point>
      <point x="753" y="903" type="line"></point>
      <point x="477" y="903" type="line"></point>
    </contour>
  </outline>
</glyph>
<glyph name="dollar" format="1">
  <advance width="1154"></advance>
  <unicode hex="0024"></unicode>
  <outline>
    <contour>
      <point x="663" y="-19.5752" type="curve"></point>
      <point x="663" y="-213" type="line"></point>
      <point x="544" y="-213" type="line"></point>
      <point x="544" y="-20.1377" type="line"></point>
      <point x="376" y="-9.25486"></point>
      <point x="185" y="48.5572"></point>
      <point x="50" y="133" type="curve"></point>
      <point x="114" y="339" type="line"></point>
      <point x="281" y="247.056"></point>
      <point x="424" y="205.134"></point>
      <point x="544" y="196.65" type="curve"></point>
      <point x="544" y="694.458" type="line"></point>
      <point x="522" y="702.181"></point>
      <point x="498" y="710.022"></point>
      <point x="474" y="718" type="curve" smooth="yes"></point>
      <point x="128" y="837"></point>
      <point x="42" y="964"></point>
      <point x="42" y="1148" type="curve" smooth="yes"></point>
      <point x="42" y="1374.24"></point>
      <point x="182" y="1573.86"></point>
      <point x="544" y="1583.63" type="curve"></point>
      <point x="544" y="1729" type="line"></point>
      <point x="663" y="1729" type="line"></point>
      <point x="663" y="1579.94" type="line"></point>
      <point x="794" y="1568.24"></point>
      <point x="930" y="1530.73"></point>
      <point x="1046" y="1461" type="curve"></point>
      <point x="970" y="1263" type="line"></point>
      <point x="862" y="1319.31"></point>
      <point x="759" y="1354.24"></point>
      <point x="663" y="1366.28" type="curve"></point>
      <point x="663" y="907.849" type="line"></point>
      <point x="988" y="791.051"></point>
      <point x="1102" y="681.492"></point>
      <point x="1102" y="439" type="curve" smooth="yes"></point>
      <point x="1102" y="421" type="line"></point>
      <point x="1097" y="194.478"></point>
      <point x="959" y="3.87904"></point>
    </contour>
    <contour>
      <point x="544" y="951.026" type="curve"></point>
      <point x="544" y="1369.55" type="line"></point>
      <point x="372" y="1358.04"></point>
      <point x="320" y="1279.12"></point>
      <point x="320" y="1184" type="curve" smooth="yes"></point>
      <point x="320" y="1086.73"></point>
      <point x="339" y="1031.61"></point>
    </contour>
    <contour>
      <point x="663" y="646.718" type="curve"></point>
      <point x="663" y="201.862" type="line"></point>
      <point x="788" y="226.925"></point>
      <point x="852" y="317.08"></point>
      <point x="852" y="413" type="curve" smooth="yes"></point>
      <point x="852" y="496.977"></point>
      <point x="835" y="567.047"></point>
    </contour>
  </outline>
</glyph>
<glyph name="percent" format="1">
  <advance width="2062"></advance>
  <unicode hex="0025"></unicode>
  <outline>
    <contour>
      <point x="348" y="581" type="curve" smooth="yes"></point>
      <point x="70" y="581"></point>
      <point x="-65" y="786"></point>
      <point x="-65" y="1025" type="curve" smooth="yes"></point>
      <point x="-65" y="1306"></point>
      <point x="111" y="1475"></point>
      <point x="354" y="1475" type="curve" smooth="yes"></point>
      <point x="621" y="1475"></point>
      <point x="766" y="1295"></point>
      <point x="766" y="1030" type="curve" smooth="yes"></point>
      <point x="766" y="750"></point>
      <point x="590" y="581"></point>
    </contour>
    <contour>
      <point x="356" y="737" type="curve" smooth="yes"></point>
      <point x="511" y="737"></point>
      <point x="580" y="872"></point>
      <point x="580" y="1031" type="curve" smooth="yes"></point>
      <point x="580" y="1203"></point>
      <point x="502" y="1320"></point>
      <point x="357" y="1320" type="curve" smooth="yes"></point>
      <point x="199" y="1320"></point>
      <point x="130" y="1187"></point>
      <point x="130" y="1027" type="curve" smooth="yes"></point>
      <point x="130" y="866"></point>
      <point x="198" y="737"></point>
    </contour>
    <contour>
      <point x="1662" y="134" type="curve" smooth="yes"></point>
      <point x="1817" y="134"></point>
      <point x="1886" y="269"></point>
      <point x="1886" y="428" type="curve" smooth="yes"></point>
      <point x="1886" y="600"></point>
      <point x="1808" y="717"></point>
      <point x="1663" y="717" type="curve" smooth="yes"></point>
      <point x="1505" y="717"></point>
      <point x="1436" y="584"></point>
      <point x="1436" y="424" type="curve" smooth="yes"></point>
      <point x="1436" y="263"></point>
      <point x="1504" y="134"></point>
    </contour>
    <contour>
      <point x="1654" y="-22" type="curve" smooth="yes"></point>
      <point x="1376" y="-22"></point>
      <point x="1240" y="183"></point>
      <point x="1240" y="422" type="curve" smooth="yes"></point>
      <point x="1240" y="703"></point>
      <point x="1417" y="872"></point>
      <point x="1660" y="872" type="curve" smooth="yes"></point>
      <point x="1927" y="872"></point>
      <point x="2072" y="692"></point>
      <point x="2072" y="427" type="curve" smooth="yes"></point>
      <point x="2072" y="147"></point>
      <point x="1896" y="-22"></point>
    </contour>
    <contour>
      <point x="423" y="0" type="line"></point>
      <point x="1395" y="1470" type="line"></point>
      <point x="1597" y="1470" type="line"></point>
      <point x="634" y="0" type="line"></point>
    </contour>
  </outline>
</glyph>
<glyph name="ampersand" format="1">
  <advance width="1360"></advance>
  <unicode hex="0026"></unicode>
  <outline>
    <contour>
      <point x="18" y="386" type="curve" smooth="yes"></point>
      <point x="18" y="602"></point>
      <point x="173" y="731"></point>
      <point x="339" y="827" type="curve"></point>
      <point x="255" y="918"></point>
      <point x="175" y="1010"></point>
      <point x="175" y="1162" type="curve" smooth="yes"></point>
      <point x="175" y="1361"></point>
      <point x="339" y="1483"></point>
      <point x="524" y="1483" type="curve" smooth="yes"></point>
      <point x="725" y="1483"></point>
      <point x="893" y="1376"></point>
      <point x="893" y="1191" type="curve" smooth="yes"></point>
      <point x="893" y="989"></point>
      <point x="723" y="874"></point>
      <point x="589" y="799" type="curve"></point>
      <point x="921" y="436" type="line"></point>
      <point x="1014" y="563"></point>
      <point x="1063" y="746"></point>
      <point x="1063" y="919" type="curve"></point>
      <point x="1255" y="871" type="line"></point>
      <point x="1246" y="632"></point>
      <point x="1168" y="431"></point>
      <point x="1057" y="289" type="curve"></point>
      <point x="1130" y="214"></point>
      <point x="1171" y="163"></point>
      <point x="1366" y="122" type="curve"></point>
      <point x="1289" y="-36" type="line"></point>
      <point x="1136" y="-14"></point>
      <point x="1012" y="72"></point>
      <point x="929" y="159" type="curve"></point>
      <point x="818" y="29"></point>
      <point x="646" y="-37"></point>
      <point x="482" y="-37" type="curve" smooth="yes"></point>
      <point x="242" y="-37"></point>
      <point x="18" y="103"></point>
    </contour>
    <contour>
      <point x="822" y="293" type="curve"></point>
      <point x="437" y="712" type="line"></point>
      <point x="300" y="616"></point>
      <point x="231" y="538"></point>
      <point x="231" y="395" type="curve" smooth="yes"></point>
      <point x="231" y="221"></point>
      <point x="357" y="140"></point>
      <point x="500" y="140" type="curve" smooth="yes"></point>
      <point x="615" y="140"></point>
      <point x="742" y="193"></point>
    </contour>
    <contour>
      <point x="506" y="910" type="curve"></point>
      <point x="595" y="961"></point>
      <point x="693" y="1067"></point>
      <point x="693" y="1174" type="curve" smooth="yes"></point>
      <point x="693" y="1268"></point>
      <point x="621" y="1315"></point>
      <point x="534" y="1315" type="curve" smooth="yes"></point>
      <point x="447" y="1315"></point>
      <point x="367" y="1269"></point>
      <point x="367" y="1174" type="curve" smooth="yes"></point>
      <point x="367" y="1063"></point>
      <point x="443" y="976"></point>
    </contour>
  </outline>
</glyph>
<glyph name="quotesingle" format="1">
  <advance width="561"></advance>
  <unicode hex="0027"></unicode>
  <outline>
    <contour>
      <point x="184" y="908" type="line"></point>
      <point x="184" y="1480" type="line"></point>
      <point x="405" y="1480" type="line"></point>
      <point x="333" y="908" type="line"></point>
    </contour>
  </outline>
</glyph>
<glyph name="parenleft" format="1">
  <advance width="742"></advance>
  <unicode hex="0028"></unicode>
  <outline>
    <contour>
      <point x="663" y="1564" type="line"></point>
      <point x="489" y="1192"></point>
      <point x="405" y="985"></point>
      <point x="405" y="678" type="curve" smooth="yes"></point>
      <point x="405" y="361"></point>
      <point x="497" y="145"></point>
      <point x="674" y="-244" type="curve"></point>
      <point x="447" y="-244" type="line"></point>
      <point x="240" y="143"></point>
      <point x="133" y="359"></point>
      <point x="133" y="675" type="curve" smooth="yes"></point>
      <point x="133" y="983"></point>
      <point x="233" y="1192"></point>
      <point x="436" y="1564" type="curve"></point>
    </contour>
  </outline>
</glyph>
<glyph name="parenright" format="1">
  <advance width="742"></advance>
  <unicode hex="0029"></unicode>
  <outline>
    <contour>
      <point x="90" y="-244" type="line"></point>
      <point x="264" y="128"></point>
      <point x="348" y="335"></point>
      <point x="348" y="642" type="curve" smooth="yes"></point>
      <point x="348" y="959"></point>
      <point x="256" y="1175"></point>
      <point x="79" y="1564" type="curve"></point>
      <point x="306" y="1564" type="line"></point>
      <point x="513" y="1177"></point>
      <point x="620" y="961"></point>
      <point x="620" y="645" type="curve" smooth="yes"></point>
      <point x="620" y="337"></point>
      <point x="520" y="128"></point>
      <point x="317" y="-244" type="curve"></point>
    </contour>
  </outline>
</glyph>
<glyph name="asterisk" format="1">
  <advance width="907"></advance>
  <unicode hex="002A"></unicode>
  <outline>
    <contour>
      <point x="605" y="618" type="line"></point>
      <point x="436" y="930" type="line"></point>
      <point x="273" y="627" type="line"></point>
      <point x="127" y="715" type="line"></point>
      <point x="345" y="995" type="line"></point>
      <point x="24" y="1104" type="line"></point>
      <point x="88" y="1250" type="line"></point>
      <point x="384" y="1100" type="line"></point>
      <point x="354" y="1456" type="line"></point>
      <point x="505" y="1456" type="line"></point>
      <point x="492" y="1106" type="line"></point>
      <point x="776" y="1251" type="line"></point>
      <point x="852" y="1105" type="line"></point>
      <point x="523" y="999" type="line"></point>
      <point x="753" y="704" type="line"></point>
    </contour>
  </outline>
</glyph>
<glyph name="plus" format="1">
  <advance width="1195"></advance>
  <unicode hex="002B"></unicode>
  <outline>
    <contour>
      <point x="506" y="135" type="line"></point>
      <point x="506" y="611" type="line"></point>
      <point x="73" y="611" type="line"></point>
      <point x="73" y="795" type="line"></point>
      <point x="508" y="795" type="line"></point>
      <point x="508" y="1272" type="line"></point>
      <point x="702" y="1272" type="line"></point>
      <point x="702" y="795" type="line"></point>
      <point x="1123" y="795" type="line"></point>
      <point x="1123" y="611" type="line"></point>
      <point x="700" y="611" type="line"></point>
      <point x="700" y="135" type="line"></point>
    </contour>
  </outline>
</glyph>
<glyph name="comma" format="1">
  <advance width="659"></advance>
  <unicode hex="002C"></unicode>
  <outline>
    <contour>
      <point x="145" y="-297" type="line"></point>
      <point x="235" y="255" type="line"></point>
      <point x="490" y="255" type="line"></point>
      <point x="299" y="-297" type="line"></point>
    </contour>
  </outline>
</glyph>
<glyph name="period" format="1">
  <advance width="659"></advance>
  <unicode hex="002E"></unicode>
  <outline>
    <contour>
      <point x="334" y="-12" type="curve" smooth="yes"></point>
      <point x="238" y="-12"></point>
      <point x="169" y="54"></point>
      <point x="169" y="149" type="curve" smooth="yes"></point>
      <point x="169" y="241"></point>
      <point x="238" y="306"></point>
      <point x="334" y="306" type="curve" smooth="yes"></point>
      <point x="430" y="306"></point>
      <point x="499" y="241"></point>
      <point x="499" y="146" type="curve" smooth="yes"></point>
      <point x="499" y="52"></point>
      <point x="430" y="-12"></point>
    </contour>
  </outline>
</glyph>
<glyph name="slash" format="1">
  <advance width="866"></advance>
  <unicode hex="002F"></unicode>
  <outline>
    <contour>
      <point x="61" y="0" type="line"></point>
      <point x="656" y="1470" type="line"></point>
      <point x="848" y="1470" type="line"></point>
      <point x="261" y="0" type="line"></point>
    </contour>
  </outline>
</glyph>
<glyph name="zero" format="1">
  <advance width="1237"></advance>
  <unicode hex="0030"></unicode>
  <outline>
    <contour>
      <point x="605" y="184" type="curve" smooth="yes"></point>
      <point x="800" y="184"></point>
      <point x="903" y="413"></point>
      <point x="903" y="731" type="curve" smooth="yes"></point>
      <point x="903" y="1055"></point>
      <point x="800" y="1272"></point>
      <point x="605" y="1272" type="curve" smooth="yes"></point>
      <point x="407" y="1272"></point>
      <point x="311" y="1055"></point>
      <point x="311" y="731" type="curve" smooth="yes"></point>
      <point x="311" y="413"></point>
      <point x="407" y="184"></point>
    </contour>
    <contour>
      <point x="606" y="-24" type="curve" smooth="yes"></point>
      <point x="259" y="-24"></point>
      <point x="73" y="290"></point>
      <point x="73" y="728" type="curve" smooth="yes"></point>
      <point x="73" y="1172"></point>
      <point x="259" y="1480"></point>
      <point x="606" y="1480" type="curve" smooth="yes"></point>
      <point x="955" y="1480"></point>
      <point x="1141" y="1172"></point>
      <point x="1141" y="728" type="curve" smooth="yes"></point>
      <point x="1141" y="290"></point>
      <point x="955" y="-24"></point>
    </contour>
  </outline>
</glyph>
<glyph name="one" format="1">
  <advance width="659"></advance>
  <unicode hex="0031"></unicode>
  <outline>
    <contour>
      <point x="193" y="0" type="line"></point>
      <point x="193" y="1456" type="line"></point>
      <point x="443" y="1456" type="line"></point>
      <point x="443" y="0" type="line"></point>
    </contour>
  </outline>
</glyph>
<glyph name="two" format="1">
  <advance width="1031"></advance>
  <unicode hex="0032"></unicode>
  <outline>
    <contour>
      <point x="502" y="1480" type="curve" smooth="yes"></point>
      <point x="733" y="1480"></point>
      <point x="962" y="1336"></point>
      <point x="962" y="1027" type="curve" smooth="yes"></point>
      <point x="962" y="863"></point>
      <point x="851" y="709"></point>
      <point x="705" y="543" type="curve" smooth="yes"></point>
      <point x="404" y="200" type="line"></point>
      <point x="949" y="200" type="line"></point>
      <point x="949" y="0" type="line"></point>
      <point x="97" y="0" type="line"></point>
      <point x="97" y="192" type="line"></point>
      <point x="542" y="685" type="line" smooth="yes"></point>
      <point x="659" y="815"></point>
      <point x="713" y="940"></point>
      <point x="713" y="1041" type="curve" smooth="yes"></point>
      <point x="713" y="1178"></point>
      <point x="618" y="1272"></point>
      <point x="481" y="1272" type="curve" smooth="yes"></point>
      <point x="379" y="1272"></point>
      <point x="282" y="1215"></point>
      <point x="192" y="1112" type="curve"></point>
      <point x="36" y="1246" type="line"></point>
      <point x="150" y="1404"></point>
      <point x="337" y="1480"></point>
    </contour>
  </outline>
</glyph>
<glyph name="three" format="1">
  <advance width="1072"></advance>
  <unicode hex="0033"></unicode>
  <outline>
    <contour>
      <point x="511" y="-24" type="curve" smooth="yes"></point>
      <point x="330" y="-24"></point>
      <point x="204" y="17"></point>
      <point x="68" y="112" type="curve"></point>
      <point x="160" y="288" type="line"></point>
      <point x="280" y="210"></point>
      <point x="392" y="184"></point>
      <point x="507" y="184" type="curve" smooth="yes"></point>
      <point x="651" y="184"></point>
      <point x="751" y="279"></point>
      <point x="751" y="410" type="curve" smooth="yes"></point>
      <point x="751" y="619"></point>
      <point x="598" y="652"></point>
      <point x="424" y="652" type="curve" smooth="yes"></point>
      <point x="319" y="652" type="line"></point>
      <point x="319" y="848" type="line"></point>
      <point x="410" y="848" type="line" smooth="yes"></point>
      <point x="529" y="848"></point>
      <point x="707" y="872"></point>
      <point x="707" y="1060" type="curve" smooth="yes"></point>
      <point x="707" y="1207"></point>
      <point x="596" y="1272"></point>
      <point x="481" y="1272" type="curve" smooth="yes"></point>
      <point x="382" y="1272"></point>
      <point x="251" y="1242"></point>
      <point x="167" y="1160" type="curve"></point>
      <point x="55" y="1317" type="line"></point>
      <point x="184" y="1437"></point>
      <point x="331" y="1480"></point>
      <point x="486" y="1480" type="curve" smooth="yes"></point>
      <point x="720" y="1480"></point>
      <point x="944" y="1358"></point>
      <point x="944" y="1090" type="curve" smooth="yes"></point>
      <point x="944" y="894"></point>
      <point x="811" y="795"></point>
      <point x="718" y="768" type="curve"></point>
      <point x="815" y="749"></point>
      <point x="987" y="658"></point>
      <point x="987" y="407" type="curve" smooth="yes"></point>
      <point x="987" y="132"></point>
      <point x="768" y="-24"></point>
    </contour>
  </outline>
</glyph>
<glyph name="four" format="1">
  <advance width="1072"></advance>
  <unicode hex="0034"></unicode>
  <outline>
    <contour>
      <point x="870" y="868" type="line"></point>
      <point x="870" y="518" type="line"></point>
      <point x="1067" y="518" type="line"></point>
      <point x="1067" y="327" type="line"></point>
      <point x="870" y="327" type="line"></point>
      <point x="870" y="0" type="line"></point>
      <point x="660" y="0" type="line"></point>
      <point x="660" y="327" type="line"></point>
      <point x="42" y="327" type="line"></point>
      <point x="42" y="504" type="line"></point>
      <point x="408" y="1456" type="line"></point>
      <point x="631" y="1456" type="line"></point>
      <point x="303" y="518" type="line"></point>
      <point x="660" y="518" type="line"></point>
      <point x="660" y="868" type="line"></point>
    </contour>
  </outline>
</glyph>
<glyph name="five" format="1">
  <advance width="1031"></advance>
  <unicode hex="0035"></unicode>
  <outline>
    <contour>
      <point x="492" y="-24" type="curve" smooth="yes"></point>
      <point x="319" y="-24"></point>
      <point x="193" y="29"></point>
      <point x="67" y="133" type="curve"></point>
      <point x="157" y="322" type="line"></point>
      <point x="248" y="240"></point>
      <point x="341" y="184"></point>
      <point x="477" y="184" type="curve" smooth="yes"></point>
      <point x="634" y="184"></point>
      <point x="734" y="313"></point>
      <point x="734" y="459" type="curve" smooth="yes"></point>
      <point x="734" y="639"></point>
      <point x="628" y="731"></point>
      <point x="515" y="733" type="curve"></point>
      <point x="442" y="733"></point>
      <point x="377" y="717"></point>
      <point x="310" y="644" type="curve"></point>
      <point x="135" y="644" type="line"></point>
      <point x="135" y="1456" type="line"></point>
      <point x="867" y="1456" type="line"></point>
      <point x="867" y="1257" type="line"></point>
      <point x="357" y="1257" type="line"></point>
      <point x="343" y="851" type="line"></point>
      <point x="385" y="885"></point>
      <point x="447" y="929"></point>
      <point x="570" y="929" type="curve" smooth="yes"></point>
      <point x="759" y="929"></point>
      <point x="976" y="806"></point>
      <point x="976" y="466" type="curve" smooth="yes"></point>
      <point x="976" y="138"></point>
      <point x="742" y="-24"></point>
    </contour>
  </outline>
</glyph>
<glyph name="six" format="1">
  <advance width="1113"></advance>
  <unicode hex="0036"></unicode>
  <outline>
    <contour>
      <point x="578" y="-24" type="curve" smooth="yes"></point>
      <point x="332" y="-24"></point>
      <point x="67" y="134"></point>
      <point x="67" y="537" type="curve" smooth="yes"></point>
      <point x="67" y="955"></point>
      <point x="225" y="1370"></point>
      <point x="793" y="1530" type="curve"></point>
      <point x="869" y="1328" type="line"></point>
      <point x="588" y="1242"></point>
      <point x="412" y="1098"></point>
      <point x="344" y="832" type="curve"></point>
      <point x="421" y="904"></point>
      <point x="519" y="939"></point>
      <point x="618" y="939" type="curve" smooth="yes"></point>
      <point x="622" y="939" type="line"></point>
      <point x="840" y="937"></point>
      <point x="1059" y="769"></point>
      <point x="1059" y="468" type="curve" smooth="yes"></point>
      <point x="1059" y="140"></point>
      <point x="808" y="-24"></point>
    </contour>
    <contour>
      <point x="571" y="180" type="curve" smooth="yes"></point>
      <point x="698" y="180"></point>
      <point x="826" y="272"></point>
      <point x="826" y="453" type="curve" smooth="yes"></point>
      <point x="826" y="649"></point>
      <point x="707" y="736"></point>
      <point x="578" y="736" type="curve" smooth="yes"></point>
      <point x="451" y="736"></point>
      <point x="314" y="653"></point>
      <point x="314" y="455" type="curve" smooth="yes"></point>
      <point x="314" y="273"></point>
      <point x="443" y="180"></point>
    </contour>
  </outline>
</glyph>
<glyph name="seven" format="1">
  <advance width="907"></advance>
  <unicode hex="0037"></unicode>
  <outline>
    <contour>
      <point x="170" y="0" type="line"></point>
      <point x="639" y="1257" type="line"></point>
      <point x="-17" y="1257" type="line"></point>
      <point x="-17" y="1456" type="line"></point>
      <point x="890" y="1456" type="line"></point>
      <point x="890" y="1275" type="line"></point>
      <point x="428" y="0" type="line"></point>
    </contour>
  </outline>
</glyph>
<glyph name="eight" format="1">
  <advance width="1072"></advance>
  <unicode hex="0038"></unicode>
  <outline>
    <contour>
      <point x="532" y="855" type="curve"></point>
      <point x="706" y="957"></point>
      <point x="738" y="1028"></point>
      <point x="738" y="1122" type="curve" smooth="yes"></point>
      <point x="738" y="1239"></point>
      <point x="644" y="1292"></point>
      <point x="531" y="1292" type="curve" smooth="yes"></point>
      <point x="409" y="1292"></point>
      <point x="322" y="1231"></point>
      <point x="322" y="1122" type="curve" smooth="yes"></point>
      <point x="322" y="990"></point>
      <point x="394" y="930"></point>
    </contour>
    <contour>
      <point x="518" y="649" type="curve"></point>
      <point x="377" y="558"></point>
      <point x="302" y="455"></point>
      <point x="302" y="359" type="curve" smooth="yes"></point>
      <point x="302" y="251"></point>
      <point x="379" y="168"></point>
      <point x="529" y="168" type="curve" smooth="yes"></point>
      <point x="696" y="168"></point>
      <point x="764" y="251"></point>
      <point x="764" y="356" type="curve" smooth="yes"></point>
      <point x="764" y="460"></point>
      <point x="728" y="532"></point>
    </contour>
    <contour>
      <point x="91" y="1107" type="curve" smooth="yes"></point>
      <point x="91" y="1352"></point>
      <point x="275" y="1480"></point>
      <point x="527" y="1480" type="curve" smooth="yes"></point>
      <point x="817" y="1480"></point>
      <point x="962" y="1305"></point>
      <point x="962" y="1107" type="curve" smooth="yes"></point>
      <point x="962" y="980"></point>
      <point x="869" y="866"></point>
      <point x="709" y="761" type="curve"></point>
      <point x="898" y="649"></point>
      <point x="993" y="513"></point>
      <point x="993" y="353" type="curve" smooth="yes"></point>
      <point x="993" y="156"></point>
      <point x="868" y="-24"></point>
      <point x="527" y="-24" type="curve" smooth="yes"></point>
      <point x="206" y="-24"></point>
      <point x="61" y="135"></point>
      <point x="61" y="360" type="curve" smooth="yes"></point>
      <point x="61" y="515"></point>
      <point x="123" y="621"></point>
      <point x="330" y="745" type="curve"></point>
      <point x="221" y="804"></point>
      <point x="91" y="906"></point>
    </contour>
  </outline>
</glyph>
<glyph name="nine" format="1">
  <advance width="1072"></advance>
  <unicode hex="0039"></unicode>
  <outline>
    <contour>
      <point x="567" y="748" type="curve" smooth="yes"></point>
      <point x="691" y="778"></point>
      <point x="748" y="894"></point>
      <point x="748" y="1073" type="curve" smooth="yes"></point>
      <point x="748" y="1235" type="line"></point>
      <point x="730" y="1242"></point>
      <point x="656" y="1292"></point>
      <point x="572" y="1292" type="curve" smooth="yes"></point>
      <point x="567" y="1292"></point>
      <point x="561" y="1291"></point>
      <point x="556" y="1291" type="curve" smooth="yes"></point>
      <point x="402" y="1279"></point>
      <point x="316" y="1138"></point>
      <point x="316" y="982" type="curve" smooth="yes"></point>
      <point x="316" y="836"></point>
      <point x="388" y="740"></point>
      <point x="506" y="740" type="curve" smooth="yes"></point>
      <point x="525" y="740"></point>
      <point x="546" y="743"></point>
    </contour>
    <contour>
      <point x="966" y="0" type="line"></point>
      <point x="747" y="0" type="line"></point>
      <point x="747" y="637" type="line"></point>
      <point x="692" y="593"></point>
      <point x="626" y="562"></point>
      <point x="550" y="552" type="curve" smooth="yes"></point>
      <point x="529" y="549"></point>
      <point x="507" y="548"></point>
      <point x="487" y="548" type="curve" smooth="yes"></point>
      <point x="259" y="548"></point>
      <point x="79" y="718"></point>
      <point x="79" y="973" type="curve" smooth="yes"></point>
      <point x="79" y="1276"></point>
      <point x="298" y="1471"></point>
      <point x="540" y="1480" type="curve"></point>
      <point x="564" y="1480" type="line" smooth="yes"></point>
      <point x="762" y="1480"></point>
      <point x="904" y="1386"></point>
      <point x="966" y="1349" type="curve"></point>
      <point x="966" y="1079" type="line"></point>
      <point x="966" y="1076" type="line"></point>
    </contour>
  </outline>
</glyph>
<glyph name="colon" format="1">
  <advance width="659"></advance>
  <unicode hex="003A"></unicode>
  <outline>
    <contour>
      <point x="193" y="0" type="line"></point>
      <point x="193" y="247" type="line"></point>
      <point x="448" y="247" type="line"></point>
      <point x="448" y="0" type="line"></point>
    </contour>
    <contour>
      <point x="193" y="779" type="line"></point>
      <point x="193" y="1026" type="line"></point>
      <point x="448" y="1026" type="line"></point>
      <point x="448" y="779" type="line"></point>
    </contour>
  </outline>
</glyph>
<glyph name="semicolon" format="1">
  <advance width="659"></advance>
  <unicode hex="003B"></unicode>
  <outline>
    <contour>
      <point x="229" y="779" type="line"></point>
      <point x="229" y="1026" type="line"></point>
      <point x="484" y="1026" type="line"></point>
      <point x="484" y="779" type="line"></point>
    </contour>
    <contour>
      <point x="139" y="-297" type="line"></point>
      <point x="229" y="255" type="line"></point>
      <point x="484" y="255" type="line"></point>
      <point x="293" y="-297" type="line"></point>
    </contour>
  </outline>
</glyph>
<glyph name="less" format="1">
  <advance width="1113"></advance>
  <unicode hex="003C"></unicode>
  <outline>
    <contour>
      <point x="1004" y="84" type="line"></point>
      <point x="55" y="518" type="line"></point>
      <point x="55" y="645" type="line"></point>
      <point x="1008" y="1098" type="line"></point>
      <point x="1008" y="897" type="line"></point>
      <point x="373" y="585" type="line"></point>
      <point x="1004" y="286" type="line"></point>
    </contour>
  </outline>
</glyph>
<glyph name="equal" format="1">
  <advance width="997"></advance>
  <unicode hex="003D"></unicode>
  <outline>
    <contour>
      <point x="88" y="853" type="line"></point>
      <point x="88" y="1026" type="line"></point>
      <point x="914" y="1026" type="line"></point>
      <point x="914" y="853" type="line"></point>
    </contour>
    <contour>
      <point x="89" y="450" type="line"></point>
      <point x="89" y="620" type="line"></point>
      <point x="914" y="620" type="line"></point>
      <point x="914" y="450" type="line"></point>
    </contour>
  </outline>
</glyph>
<glyph name="greater" format="1">
  <advance width="1113"></advance>
  <unicode hex="003E"></unicode>
  <outline>
    <contour>
      <point x="83" y="1092" type="line"></point>
      <point x="1032" y="658" type="line"></point>
      <point x="1032" y="531" type="line"></point>
      <point x="79" y="78" type="line"></point>
      <point x="79" y="279" type="line"></point>
      <point x="714" y="591" type="line"></point>
      <point x="83" y="890" type="line"></point>
    </contour>
  </outline>
</glyph>
<glyph name="question" format="1">
  <advance width="866"></advance>
  <unicode hex="003F"></unicode>
  <outline>
    <contour>
      <point x="293" y="-12" type="curve" smooth="yes"></point>
      <point x="197" y="-12"></point>
      <point x="128" y="54"></point>
      <point x="128" y="149" type="curve" smooth="yes"></point>
      <point x="128" y="241"></point>
      <point x="197" y="306"></point>
      <point x="293" y="306" type="curve" smooth="yes"></point>
      <point x="389" y="306"></point>
      <point x="458" y="241"></point>
      <point x="458" y="146" type="curve" smooth="yes"></point>
      <point x="458" y="52"></point>
      <point x="389" y="-12"></point>
    </contour>
    <contour>
      <point x="233" y="423" type="line"></point>
      <point x="233" y="887"></point>
      <point x="497" y="963"></point>
      <point x="497" y="1109" type="curve" smooth="yes"></point>
      <point x="497" y="1212"></point>
      <point x="417" y="1252"></point>
      <point x="323" y="1252" type="curve" smooth="yes"></point>
      <point x="257" y="1252"></point>
      <point x="166" y="1233"></point>
      <point x="92" y="1205" type="curve"></point>
      <point x="61" y="1416" type="line"></point>
      <point x="164" y="1459"></point>
      <point x="277" y="1480"></point>
      <point x="377" y="1480" type="curve" smooth="yes"></point>
      <point x="590" y="1480"></point>
      <point x="774" y="1377"></point>
      <point x="774" y="1137" type="curve" smooth="yes"></point>
      <point x="774" y="781"></point>
      <point x="404" y="776"></point>
      <point x="347" y="423" type="curve"></point>
    </contour>
  </outline>
</glyph>
<glyph name="at" format="1">
  <advance width="1690"></advance>
  <unicode hex="0040"></unicode>
  <outline>
    <contour>
      <point x="897" y="-64" type="curve" smooth="yes"></point>
      <point x="460" y="-64"></point>
      <point x="55" y="214"></point>
      <point x="55" y="721" type="curve" smooth="yes"></point>
      <point x="55" y="1244"></point>
      <point x="478" y="1514"></point>
      <point x="910" y="1514" type="curve" smooth="yes"></point>
      <point x="1282" y="1514"></point>
      <point x="1644" y="1290"></point>
      <point x="1644" y="832" type="curve" smooth="yes"></point>
      <point x="1644" y="511"></point>
      <point x="1465" y="298"></point>
      <point x="1219" y="298" type="curve" smooth="yes"></point>
      <point x="1116" y="298"></point>
      <point x="1019" y="356"></point>
      <point x="1019" y="488" type="curve" smooth="yes"></point>
      <point x="1019" y="494"></point>
      <point x="1020" y="500"></point>
      <point x="1020" y="506" type="curve"></point>
      <point x="950" y="365"></point>
      <point x="832" y="299"></point>
      <point x="737" y="299" type="curve" smooth="yes"></point>
      <point x="580" y="299"></point>
      <point x="465" y="432"></point>
      <point x="465" y="668" type="curve" smooth="yes"></point>
      <point x="465" y="946"></point>
      <point x="666" y="1162"></point>
      <point x="863" y="1177" type="curve" smooth="yes"></point>
      <point x="874" y="1178"></point>
      <point x="883" y="1178"></point>
      <point x="893" y="1178" type="curve" smooth="yes"></point>
      <point x="1013" y="1178"></point>
      <point x="1068" y="1117"></point>
      <point x="1094" y="1041" type="curve"></point>
      <point x="1133" y="1146" type="line"></point>
      <point x="1274" y="1146" type="line"></point>
      <point x="1201" y="792"></point>
      <point x="1152" y="545"></point>
      <point x="1152" y="528" type="curve" smooth="yes"></point>
      <point x="1152" y="468"></point>
      <point x="1188" y="431"></point>
      <point x="1234" y="431" type="curve" smooth="yes"></point>
      <point x="1334" y="431"></point>
      <point x="1483" y="544"></point>
      <point x="1483" y="837" type="curve" smooth="yes"></point>
      <point x="1483" y="1172"></point>
      <point x="1218" y="1369"></point>
      <point x="908" y="1369" type="curve" smooth="yes"></point>
      <point x="552" y="1369"></point>
      <point x="246" y="1140"></point>
      <point x="246" y="726" type="curve" smooth="yes"></point>
      <point x="246" y="311"></point>
      <point x="542" y="89"></point>
      <point x="925" y="89" type="curve" smooth="yes"></point>
      <point x="1063" y="89"></point>
      <point x="1222" y="129"></point>
      <point x="1345" y="200" type="curve"></point>
      <point x="1426" y="71" type="line"></point>
      <point x="1268" y="-24"></point>
      <point x="1071" y="-64"></point>
    </contour>
    <contour>
      <point x="770" y="465" type="curve" smooth="yes"></point>
      <point x="880" y="465"></point>
      <point x="1018" y="601"></point>
      <point x="1018" y="868" type="curve" smooth="yes"></point>
      <point x="1018" y="975"></point>
      <point x="965" y="1023"></point>
      <point x="900" y="1023" type="curve" smooth="yes"></point>
      <point x="786" y="1023"></point>
      <point x="633" y="883"></point>
      <point x="633" y="651" type="curve" smooth="yes"></point>
      <point x="633" y="526"></point>
      <point x="696" y="465"></point>
    </contour>
  </outline>
</glyph>
<glyph name="B" format="1">
  <advance width="1278"></advance>
  <unicode hex="0042"></unicode>
  <outline>
    <contour>
      <point x="91" y="0" type="line"></point>
      <point x="91" y="1560" type="line"></point>
      <point x="570" y="1560" type="line" smooth="yes"></point>
      <point x="979" y="1560"></point>
      <point x="1170" y="1450"></point>
      <point x="1170" y="1187" type="curve" smooth="yes"></point>
      <point x="1170" y="994"></point>
      <point x="1090" y="889"></point>
      <point x="912" y="838" type="curve"></point>
      <point x="1136" y="800"></point>
      <point x="1235" y="683"></point>
      <point x="1235" y="454" type="curve" smooth="yes"></point>
      <point x="1235" y="140"></point>
      <point x="1047" y="0"></point>
      <point x="639" y="0" type="curve" smooth="yes"></point>
    </contour>
    <contour>
      <point x="341" y="209" type="line"></point>
      <point x="642" y="209" type="line" smooth="yes"></point>
      <point x="881" y="209"></point>
      <point x="982" y="285"></point>
      <point x="982" y="462" type="curve" smooth="yes"></point>
      <point x="982" y="630"></point>
      <point x="875" y="717"></point>
      <point x="626" y="717" type="curve" smooth="yes"></point>
      <point x="341" y="717" type="line"></point>
    </contour>
    <contour>
      <point x="341" y="905" type="line"></point>
      <point x="595" y="905" type="line" smooth="yes"></point>
      <point x="825" y="905"></point>
      <point x="921" y="990"></point>
      <point x="921" y="1156" type="curve" smooth="yes"></point>
      <point x="921" y="1299"></point>
      <point x="821" y="1356"></point>
      <point x="581" y="1356" type="curve" smooth="yes"></point>
      <point x="341" y="1356" type="line"></point>
    </contour>
  </outline>
</glyph>
<glyph name="C" format="1">
  <advance width="1465"></advance>
  <unicode hex="0043"></unicode>
  <outline>
    <contour>
      <point x="863" y="-24" type="curve"></point>
      <point x="853" y="-24" type="line" smooth="yes"></point>
      <point x="390" y="-24"></point>
      <point x="117" y="312"></point>
      <point x="117" y="785" type="curve" smooth="yes"></point>
      <point x="117" y="1312"></point>
      <point x="489" y="1584"></point>
      <point x="877" y="1584" type="curve" smooth="yes"></point>
      <point x="1041" y="1584"></point>
      <point x="1209" y="1535"></point>
      <point x="1352" y="1436" type="curve"></point>
      <point x="1260" y="1234" type="line"></point>
      <point x="1152" y="1324"></point>
      <point x="1015" y="1372"></point>
      <point x="881" y="1372" type="curve" smooth="yes"></point>
      <point x="622" y="1372"></point>
      <point x="376" y="1192"></point>
      <point x="376" y="784" type="curve" smooth="yes"></point>
      <point x="376" y="371"></point>
      <point x="603" y="186"></point>
      <point x="869" y="186" type="curve" smooth="yes"></point>
      <point x="1006" y="186"></point>
      <point x="1154" y="235"></point>
      <point x="1286" y="328" type="curve"></point>
      <point x="1369" y="135" type="line"></point>
      <point x="1253" y="40"></point>
      <point x="1031" y="-22"></point>
    </contour>
  </outline>
</glyph>
<glyph name="D" format="1">
  <advance width="1402"></advance>
  <unicode hex="0044"></unicode>
  <outline>
    <contour>
      <point x="347" y="200" type="line"></point>
      <point x="509" y="200" type="line" smooth="yes"></point>
      <point x="927" y="200"></point>
      <point x="1075" y="422"></point>
      <point x="1075" y="789" type="curve" smooth="yes"></point>
      <point x="1075" y="1142"></point>
      <point x="915" y="1360"></point>
      <point x="469" y="1360" type="curve" smooth="yes"></point>
      <point x="347" y="1360" type="line"></point>
    </contour>
    <contour>
      <point x="97" y="0" type="line"></point>
      <point x="97" y="1560" type="line"></point>
      <point x="436" y="1560" type="line" smooth="yes"></point>
      <point x="1030" y="1560"></point>
      <point x="1341" y="1290"></point>
      <point x="1341" y="792" type="curve" smooth="yes"></point>
      <point x="1341" y="275"></point>
      <point x="1059" y="0"></point>
      <point x="493" y="0" type="curve" smooth="yes"></point>
    </contour>
  </outline>
</glyph>
<glyph name="E" format="1">
  <advance width="1216"></advance>
  <unicode hex="0045"></unicode>
  <outline>
    <contour>
      <point x="172" y="0" type="line"></point>
      <point x="172" y="1560" type="line"></point>
      <point x="1030" y="1560" type="line"></point>
      <point x="1030" y="1360" type="line"></point>
      <point x="422" y="1360" type="line"></point>
      <point x="422" y="906" type="line"></point>
      <point x="988" y="906" type="line"></point>
      <point x="988" y="713" type="line"></point>
      <point x="422" y="713" type="line"></point>
      <point x="422" y="200" type="line"></point>
      <point x="1050" y="200" type="line"></point>
      <point x="1050" y="0" type="line"></point>
    </contour>
  </outline>
</glyph>
<glyph name="F" format="1">
  <advance width="1031"></advance>
  <unicode hex="0046"></unicode>
  <outline>
    <contour>
      <point x="109" y="0" type="line"></point>
      <point x="109" y="1560" type="line"></point>
      <point x="950" y="1560" type="line"></point>
      <point x="950" y="1360" type="line"></point>
      <point x="359" y="1360" type="line"></point>
      <point x="359" y="925" type="line"></point>
      <point x="917" y="925" type="line"></point>
      <point x="917" y="732" type="line"></point>
      <point x="359" y="732" type="line"></point>
      <point x="359" y="0" type="line"></point>
    </contour>
  </outline>
</glyph>
<glyph name="H" format="1">
  <advance width="1360"></advance>
  <unicode hex="0048"></unicode>
  <outline>
    <contour>
      <point x="97" y="0" type="line"></point>
      <point x="97" y="1560" type="line"></point>
      <point x="347" y="1560" type="line"></point>
      <point x="347" y="910" type="line"></point>
      <point x="1016" y="910" type="line"></point>
      <point x="1016" y="1560" type="line"></point>
      <point x="1266" y="1560" type="line"></point>
      <point x="1266" y="0" type="line"></point>
      <point x="1016" y="0" type="line"></point>
      <point x="1016" y="695" type="line"></point>
      <point x="347" y="695" type="line"></point>
      <point x="347" y="0" type="line"></point>
    </contour>
  </outline>
</glyph>
<glyph name="I" format="1">
  <advance width="866"></advance>
  <unicode hex="0049"></unicode>
  <outline>
    <contour>
      <point x="725" y="0" type="line"></point>
      <point x="127" y="0" type="line"></point>
      <point x="127" y="182" type="line"></point>
      <point x="301" y="182" type="line"></point>
      <point x="301" y="1378" type="line"></point>
      <point x="127" y="1378" type="line"></point>
      <point x="127" y="1560" type="line"></point>
      <point x="725" y="1560" type="line"></point>
      <point x="725" y="1378" type="line"></point>
      <point x="551" y="1378" type="line"></point>
      <point x="551" y="182" type="line"></point>
      <point x="725" y="182" type="line"></point>
    </contour>
  </outline>
</glyph>
<glyph name="J" format="1">
  <advance width="1113"></advance>
  <unicode hex="004A"></unicode>
  <outline>
    <contour>
      <point x="48" y="145" type="curve"></point>
      <point x="166" y="310" type="line"></point>
      <point x="244" y="221"></point>
      <point x="335" y="184"></point>
      <point x="416" y="184" type="curve" smooth="yes"></point>
      <point x="426" y="184" type="line"></point>
      <point x="540" y="188"></point>
      <point x="629" y="268"></point>
      <point x="629" y="428" type="curve" smooth="yes"></point>
      <point x="629" y="1360" type="line"></point>
      <point x="265" y="1360" type="line"></point>
      <point x="265" y="1560" type="line"></point>
      <point x="1190" y="1560" type="line"></point>
      <point x="1190" y="1360" type="line"></point>
      <point x="872" y="1360" type="line"></point>
      <point x="872" y="447" type="line" smooth="yes"></point>
      <point x="872" y="125"></point>
      <point x="666" y="-24"></point>
      <point x="443" y="-24" type="curve" smooth="yes"></point>
      <point x="288" y="-24"></point>
      <point x="157" y="21"></point>
    </contour>
  </outline>
</glyph>
<glyph name="K" format="1">
  <advance width="1195"></advance>
  <unicode hex="004B"></unicode>
  <outline>
    <contour>
      <point x="97" y="0" type="line"></point>
      <point x="97" y="1560" type="line"></point>
      <point x="347" y="1560" type="line"></point>
      <point x="347" y="876" type="line"></point>
      <point x="856" y="1560" type="line"></point>
      <point x="1160" y="1560" type="line"></point>
      <point x="584" y="827" type="line"></point>
      <point x="1194" y="0" type="line"></point>
      <point x="875" y="0" type="line"></point>
      <point x="347" y="735" type="line"></point>
      <point x="347" y="0" type="line"></point>
    </contour>
  </outline>
</glyph>
<glyph name="L" format="1">
  <advance width="1072"></advance>
  <unicode hex="004C"></unicode>
  <outline>
    <contour>
      <point x="109" y="0" type="line"></point>
      <point x="109" y="1560" type="line"></point>
      <point x="359" y="1560" type="line"></point>
      <point x="359" y="200" type="line"></point>
      <point x="965" y="200" type="line"></point>
      <point x="965" y="0" type="line"></point>
    </contour>
  </outline>
</glyph>
<glyph name="M" format="1">
  <advance width="1690"></advance>
  <unicode hex="004D"></unicode>
  <outline>
    <contour>
      <point x="97" y="0" type="line"></point>
      <point x="97" y="1560" type="line"></point>
      <point x="390" y="1560" type="line"></point>
      <point x="543" y="1251"></point>
      <point x="701" y="947"></point>
      <point x="850" y="633" type="curve"></point>
      <point x="995" y="951"></point>
      <point x="1157" y="1250"></point>
      <point x="1310" y="1560" type="curve"></point>
      <point x="1602" y="1560" type="line"></point>
      <point x="1602" y="0" type="line"></point>
      <point x="1352" y="0" type="line"></point>
      <point x="1352" y="1189" type="line"></point>
      <point x="1247" y="955" type="line"></point>
      <point x="904" y="293" type="line"></point>
      <point x="791" y="293" type="line"></point>
      <point x="451" y="967" type="line"></point>
      <point x="347" y="1206" type="line"></point>
      <point x="347" y="0" type="line"></point>
    </contour>
  </outline>
</glyph>
<glyph name="N" format="1">
  <advance width="1590"></advance>
  <unicode hex="004E"></unicode>
  <outline>
    <contour>
      <point x="190" y="0" type="line"></point>
      <point x="190" y="1560" type="line"></point>
      <point x="451" y="1560" type="line"></point>
      <point x="701" y="1153"></point>
      <point x="959" y="753"></point>
      <point x="1203" y="340" type="curve"></point>
      <point x="1203" y="1560" type="line"></point>
      <point x="1423" y="1560" type="line"></point>
      <point x="1423" y="0" type="line"></point>
      <point x="1158" y="0" type="line"></point>
      <point x="909" y="406"></point>
      <point x="656" y="808"></point>
      <point x="410" y="1217" type="curve"></point>
      <point x="410" y="0" type="line"></point>
    </contour>
  </outline>
</glyph>
<glyph name="P" format="1">
  <advance width="1195"></advance>
  <unicode hex="0050"></unicode>
  <outline>
    <contour>
      <point x="103" y="0" type="line"></point>
      <point x="103" y="1560" type="line"></point>
      <point x="523" y="1560" type="line" smooth="yes"></point>
      <point x="936" y="1560"></point>
      <point x="1124" y="1434"></point>
      <point x="1124" y="1121" type="curve" smooth="yes"></point>
      <point x="1124" y="793"></point>
      <point x="942" y="663"></point>
      <point x="546" y="663" type="curve" smooth="yes"></point>
      <point x="353" y="663" type="line"></point>
      <point x="353" y="0" type="line"></point>
    </contour>
    <contour>
      <point x="353" y="866" type="line"></point>
      <point x="563" y="866" type="line" smooth="yes"></point>
      <point x="771" y="866"></point>
      <point x="868" y="933"></point>
      <point x="868" y="1119" type="curve" smooth="yes"></point>
      <point x="868" y="1296"></point>
      <point x="764" y="1360"></point>
      <point x="545" y="1360" type="curve" smooth="yes"></point>
      <point x="353" y="1360" type="line"></point>
    </contour>
  </outline>
</glyph>
<glyph name="Q" format="1">
  <advance width="1525"></advance>
  <unicode hex="0051"></unicode>
  <outline>
    <contour>
      <point x="760" y="-24" type="curve" smooth="yes"></point>
      <point x="333" y="-24"></point>
      <point x="42" y="307"></point>
      <point x="42" y="780" type="curve" smooth="yes"></point>
      <point x="42" y="1248"></point>
      <point x="331" y="1584"></point>
      <point x="760" y="1584" type="curve" smooth="yes"></point>
      <point x="1193" y="1584"></point>
      <point x="1484" y="1248"></point>
      <point x="1484" y="780" type="curve" smooth="yes"></point>
      <point x="1484" y="467"></point>
      <point x="1356" y="217"></point>
      <point x="1145" y="83" type="curve"></point>
      <point x="1281" y="-168" type="line"></point>
      <point x="1113" y="-257" type="line"></point>
      <point x="966" y="4" type="line"></point>
      <point x="902" y="-14"></point>
      <point x="833" y="-24"></point>
    </contour>
    <contour>
      <point x="857" y="197" type="curve"></point>
      <point x="753" y="382" type="line"></point>
      <point x="931" y="477" type="line"></point>
      <point x="1034" y="287" type="line"></point>
      <point x="1145" y="381"></point>
      <point x="1225" y="541"></point>
      <point x="1225" y="775" type="curve" smooth="yes"></point>
      <point x="1225" y="1186"></point>
      <point x="989" y="1377"></point>
      <point x="760" y="1377" type="curve" smooth="yes"></point>
      <point x="532" y="1377"></point>
      <point x="301" y="1188"></point>
      <point x="301" y="778" type="curve" smooth="yes"></point>
      <point x="301" y="373"></point>
      <point x="532" y="186"></point>
      <point x="760" y="186" type="curve" smooth="yes"></point>
      <point x="792" y="186"></point>
      <point x="825" y="189"></point>
    </contour>
  </outline>
</glyph>
<glyph name="R" format="1">
  <advance width="1340"></advance>
  <unicode hex="0052"></unicode>
  <outline>
    <contour>
      <point x="172" y="0" type="line"></point>
      <point x="172" y="1560" type="line"></point>
      <point x="655" y="1560" type="line" smooth="yes"></point>
      <point x="1029" y="1560"></point>
      <point x="1205" y="1423"></point>
      <point x="1205" y="1157" type="curve" smooth="yes"></point>
      <point x="1205" y="987"></point>
      <point x="1129" y="826"></point>
      <point x="956" y="750" type="curve"></point>
      <point x="1255" y="0" type="line"></point>
      <point x="988" y="0" type="line"></point>
      <point x="734" y="706" type="line"></point>
      <point x="422" y="706" type="line"></point>
      <point x="422" y="0" type="line"></point>
    </contour>
    <contour>
      <point x="422" y="889" type="line"></point>
      <point x="638" y="889" type="line" smooth="yes"></point>
      <point x="841" y="889"></point>
      <point x="953" y="975"></point>
      <point x="953" y="1142" type="curve" smooth="yes"></point>
      <point x="953" y="1302"></point>
      <point x="868" y="1360"></point>
      <point x="672" y="1360" type="curve" smooth="yes"></point>
      <point x="422" y="1360" type="line"></point>
    </contour>
  </outline>
</glyph>
<glyph name="T" format="1">
  <advance width="1195"></advance>
  <unicode hex="0054"></unicode>
  <outline>
    <contour>
      <point x="646" y="0" type="line"></point>
      <point x="646" y="1360" type="line"></point>
      <point x="236" y="1360" type="line"></point>
      <point x="236" y="1560" type="line"></point>
      <point x="1304" y="1560" type="line"></point>
      <point x="1304" y="1360" type="line"></point>
      <point x="894" y="1360" type="line"></point>
      <point x="894" y="0" type="line"></point>
    </contour>
  </outline>
</glyph>
<glyph name="U" format="1">
  <advance width="1319"></advance>
  <unicode hex="0055"></unicode>
  <outline>
    <contour>
      <point x="673" y="-24" type="curve" smooth="yes"></point>
      <point x="296" y="-24"></point>
      <point x="79" y="208"></point>
      <point x="79" y="547" type="curve" smooth="yes"></point>
      <point x="79" y="1560" type="line"></point>
      <point x="329" y="1560" type="line"></point>
      <point x="329" y="536" type="line" smooth="yes"></point>
      <point x="329" y="322"></point>
      <point x="456" y="184"></point>
      <point x="672" y="184" type="curve" smooth="yes"></point>
      <point x="877" y="184"></point>
      <point x="1000" y="319"></point>
      <point x="1000" y="529" type="curve" smooth="yes"></point>
      <point x="1000" y="1560" type="line"></point>
      <point x="1249" y="1560" type="line"></point>
      <point x="1249" y="558" type="line" smooth="yes"></point>
      <point x="1249" y="213"></point>
      <point x="1042" y="-24"></point>
    </contour>
  </outline>
</glyph>
<glyph name="V" format="1">
  <advance width="1113"></advance>
  <unicode hex="0056"></unicode>
  <outline>
    <contour>
      <point x="432" y="0" type="line"></point>
      <point x="-95" y="1560" type="line"></point>
      <point x="176" y="1560" type="line"></point>
      <point x="457" y="630" type="line"></point>
      <point x="572" y="323" type="line"></point>
      <point x="679" y="629" type="line"></point>
      <point x="925" y="1560" type="line"></point>
      <point x="1205" y="1560" type="line"></point>
      <point x="710" y="0" type="line"></point>
    </contour>
  </outline>
</glyph>
<glyph name="W" format="1">
  <advance width="1690"></advance>
  <unicode hex="0057"></unicode>
  <outline>
    <contour>
      <point x="265" y="0" type="line"></point>
      <point x="-186" y="1560" type="line"></point>
      <point x="68" y="1560" type="line"></point>
      <point x="317" y="614" type="line"></point>
      <point x="384" y="385" type="line"></point>
      <point x="470" y="614" type="line"></point>
      <point x="765" y="1560" type="line"></point>
      <point x="927" y="1560" type="line"></point>
      <point x="1221" y="610" type="line"></point>
      <point x="1302" y="386" type="line"></point>
      <point x="1374" y="614" type="line"></point>
      <point x="1617" y="1560" type="line"></point>
      <point x="1866" y="1560" type="line"></point>
      <point x="1415" y="0" type="line"></point>
      <point x="1194" y="0" type="line"></point>
      <point x="841" y="1155" type="line"></point>
      <point x="486" y="0" type="line"></point>
    </contour>
  </outline>
</glyph>
<glyph name="X" format="1">
  <advance width="1237"></advance>
  <unicode hex="0058"></unicode>
  <outline>
    <contour>
      <point x="1001" y="0" type="line"></point>
      <point x="626" y="603" type="line"></point>
      <point x="238" y="0" type="line"></point>
      <point x="-35" y="0" type="line"></point>
      <point x="503" y="803" type="line"></point>
      <point x="13" y="1557" type="line"></point>
      <point x="291" y="1557" type="line"></point>
      <point x="650" y="971" type="line"></point>
      <point x="1016" y="1557" type="line"></point>
      <point x="1289" y="1557" type="line"></point>
      <point x="773" y="770" type="line"></point>
      <point x="1272" y="0" type="line"></point>
    </contour>
  </outline>
</glyph>
<glyph name="Y" format="1">
  <advance width="1153"></advance>
  <unicode hex="0059"></unicode>
  <outline>
    <contour>
      <point x="455" y="0" type="line"></point>
      <point x="455" y="612" type="line"></point>
      <point x="-51" y="1560" type="line"></point>
      <point x="217" y="1560" type="line"></point>
      <point x="578" y="838" type="line"></point>
      <point x="941" y="1560" type="line"></point>
      <point x="1199" y="1560" type="line"></point>
      <point x="705" y="614" type="line"></point>
      <point x="705" y="0" type="line"></point>
    </contour>
  </outline>
</glyph>
<glyph name="Z" format="1">
  <advance width="1113"></advance>
  <unicode hex="005A"></unicode>
  <outline>
    <contour>
      <point x="36" y="0" type="line"></point>
      <point x="36" y="198" type="line"></point>
      <point x="776" y="1360" type="line"></point>
      <point x="67" y="1360" type="line"></point>
      <point x="67" y="1560" type="line"></point>
      <point x="1068" y="1560" type="line"></point>
      <point x="1068" y="1380" type="line"></point>
      <point x="331" y="200" type="line"></point>
      <point x="1060" y="200" type="line"></point>
      <point x="1060" y="0" type="line"></point>
    </contour>
  </outline>
</glyph>
<glyph name="bracketleft" format="1">
  <advance width="701"></advance>
  <unicode hex="005B"></unicode>
  <outline>
    <contour>
      <point x="163" y="-204" type="line"></point>
      <point x="163" y="1480" type="line"></point>
      <point x="614" y="1480" type="line"></point>
      <point x="614" y="1350" type="line"></point>
      <point x="422" y="1350" type="line"></point>
      <point x="422" y="-75" type="line"></point>
      <point x="614" y="-75" type="line"></point>
      <point x="614" y="-204" type="line"></point>
    </contour>
  </outline>
</glyph>
<glyph name="backslash" format="1">
  <advance width="1029"></advance>
  <unicode hex="005C"></unicode>
  <outline>
    <contour>
      <point x="654" y="0" type="line"></point>
      <point x="75" y="1456" type="line"></point>
      <point x="312" y="1456" type="line"></point>
      <point x="889" y="0" type="line"></point>
    </contour>
  </outline>
</glyph>
<glyph name="bracketright" format="1">
  <advance width="866"></advance>
  <unicode hex="005D"></unicode>
  <outline>
    <contour>
      <point x="236" y="-222" type="line"></point>
      <point x="236" y="-93" type="line"></point>
      <point x="429" y="-93" type="line"></point>
      <point x="429" y="1350" type="line"></point>
      <point x="237" y="1350" type="line"></point>
      <point x="237" y="1480" type="line"></point>
      <point x="687" y="1480" type="line"></point>
      <point x="687" y="-222" type="line"></point>
    </contour>
  </outline>
</glyph>
<glyph name="asciicircum" format="1">
  <advance width="1072"></advance>
  <unicode hex="005E"></unicode>
  <outline>
    <contour>
      <point x="36" y="570" type="line"></point>
      <point x="492" y="1448" type="line"></point>
      <point x="584" y="1448" type="line"></point>
      <point x="1046" y="570" type="line"></point>
      <point x="842" y="570" type="line"></point>
      <point x="536" y="1176" type="line"></point>
      <point x="242" y="570" type="line"></point>
    </contour>
  </outline>
</glyph>
<glyph name="underscore" format="1">
  <advance width="1154"></advance>
  <unicode hex="005F"></unicode>
  <outline>
    <contour>
      <point x="236" y="-152" type="line"></point>
      <point x="236" y="-24" type="line"></point>
      <point x="1185" y="-24" type="line"></point>
      <point x="1185" y="-152" type="line"></point>
    </contour>
  </outline>
</glyph>
<glyph name="grave" format="1">
  <advance width="810"></advance>
  <unicode hex="0060"></unicode>
  <outline>
    <contour>
      <point x="550" y="1162" type="line"></point>
      <point x="220" y="1480" type="line"></point>
      <point x="493" y="1480" type="line"></point>
      <point x="739" y="1162" type="line"></point>
    </contour>
  </outline>
</glyph>
<glyph name="b" format="1">
  <advance width="1113"></advance>
  <unicode hex="0062"></unicode>
  <outline>
    <contour>
      <point x="502" y="-22" type="curve" smooth="yes"></point>
      <point x="369" y="-22"></point>
      <point x="236" y="3"></point>
      <point x="97" y="55" type="curve"></point>
      <point x="97" y="1560" type="line"></point>
      <point x="339" y="1560" type="line"></point>
      <point x="339" y="905" type="line"></point>
      <point x="398" y="1023"></point>
      <point x="502" y="1048"></point>
      <point x="628" y="1048" type="curve" smooth="yes"></point>
      <point x="849" y="1048"></point>
      <point x="1044" y="877"></point>
      <point x="1044" y="561" type="curve" smooth="yes"></point>
      <point x="1044" y="171"></point>
      <point x="802" y="-22"></point>
    </contour>
    <contour>
      <point x="493" y="164" type="curve" smooth="yes"></point>
      <point x="653" y="164"></point>
      <point x="800" y="273"></point>
      <point x="801" y="553" type="curve" smooth="yes"></point>
      <point x="802" y="769"></point>
      <point x="700" y="862"></point>
      <point x="579" y="862" type="curve" smooth="yes"></point>
      <point x="441" y="862"></point>
      <point x="339" y="750"></point>
      <point x="339" y="521" type="curve" smooth="yes"></point>
      <point x="339" y="181" type="line"></point>
      <point x="383" y="169"></point>
      <point x="437" y="164"></point>
    </contour>
  </outline>
</glyph>
<glyph name="c" format="1">
  <advance width="1031"></advance>
  <unicode hex="0063"></unicode>
  <outline>
    <contour>
      <point x="928" y="81" type="line"></point>
      <point x="815" y="11.5732"></point>
      <point x="700" y="-22.3291"></point>
      <point x="584" y="-22.3291" type="curve" smooth="yes"></point>
      <point x="314" y="-22.3291"></point>
      <point x="73" y="165.149"></point>
      <point x="73" y="519" type="curve" smooth="yes"></point>
      <point x="73" y="853.782"></point>
      <point x="310" y="1047.99"></point>
      <point x="583" y="1047.99" type="curve" smooth="yes"></point>
      <point x="687" y="1047.99"></point>
      <point x="792" y="1019.65"></point>
      <point x="898" y="960" type="curve"></point>
      <point x="833" y="798" type="line"></point>
      <point x="751" y="839.885"></point>
      <point x="679" y="861.836"></point>
      <point x="607" y="861.836" type="curve" smooth="yes"></point>
      <point x="448" y="861.836"></point>
      <point x="321" y="755.099"></point>
      <point x="321" y="520" type="curve" smooth="yes"></point>
      <point x="321" y="258.329"></point>
      <point x="456" y="163.856"></point>
      <point x="609" y="163.856" type="curve" smooth="yes"></point>
      <point x="692" y="163.856"></point>
      <point x="774" y="191.805"></point>
      <point x="855" y="236" type="curve"></point>
    </contour>
  </outline>
</glyph>
<glyph name="d" format="1">
  <advance width="1195"></advance>
  <unicode hex="0064"></unicode>
  <outline>
    <contour>
      <point x="736" y="1024" type="curve"></point>
      <point x="735" y="1560" type="line"></point>
      <point x="977" y="1560" type="line"></point>
      <point x="977" y="358" type="line" smooth="yes"></point>
      <point x="977" y="195"></point>
      <point x="1038" y="166"></point>
      <point x="1203" y="213" type="curve"></point>
      <point x="1228" y="20" type="line"></point>
      <point x="1009" y="-52.7461"></point>
      <point x="828" y="-40.4601"></point>
      <point x="762" y="141.398" type="curve"></point>
      <point x="708" y="40.0654"></point>
      <point x="612" y="-22"></point>
      <point x="490" y="-22" type="curve" smooth="yes"></point>
      <point x="191" y="-22"></point>
      <point x="42" y="232"></point>
      <point x="42" y="492" type="curve" smooth="yes"></point>
      <point x="42" y="766"></point>
      <point x="225" y="1048"></point>
      <point x="603" y="1048" type="curve" smooth="yes"></point>
      <point x="647" y="1048"></point>
      <point x="702" y="1034"></point>
    </contour>
    <contour>
      <point x="519" y="164" type="curve" smooth="yes"></point>
      <point x="663" y="164"></point>
      <point x="735" y="285"></point>
      <point x="735" y="429" type="curve" smooth="yes"></point>
      <point x="735" y="849" type="line"></point>
      <point x="735" y="849"></point>
      <point x="647" y="862"></point>
      <point x="588" y="862" type="curve" smooth="yes"></point>
      <point x="390" y="862"></point>
      <point x="287" y="671"></point>
      <point x="287" y="489" type="curve" smooth="yes"></point>
      <point x="287" y="323"></point>
      <point x="352" y="164"></point>
    </contour>
  </outline>
</glyph>
<glyph name="f" format="1">
  <advance width="907"></advance>
  <unicode hex="0066"></unicode>
  <outline>
    <contour>
      <point x="474" y="0" type="line"></point>
      <point x="232" y="0" type="line"></point>
      <point x="232" y="862" type="line"></point>
      <point x="36" y="862" type="line"></point>
      <point x="36" y="1026" type="line"></point>
      <point x="232" y="1026" type="line"></point>
      <point x="232" y="1176" type="line" smooth="yes"></point>
      <point x="232" y="1466"></point>
      <point x="378" y="1560"></point>
      <point x="691" y="1560" type="curve" smooth="yes"></point>
      <point x="796" y="1560" type="line"></point>
      <point x="796" y="1372" type="line"></point>
      <point x="709" y="1372" type="line" smooth="yes"></point>
      <point x="500" y="1372"></point>
      <point x="474" y="1303"></point>
      <point x="474" y="1141" type="curve" smooth="yes"></point>
      <point x="474" y="1026" type="line"></point>
      <point x="776" y="1026" type="line"></point>
      <point x="776" y="862" type="line"></point>
      <point x="474" y="862" type="line"></point>
    </contour>
  </outline>
</glyph>
<glyph name="g" format="1">
  <advance width="1113"></advance>
  <unicode hex="0067"></unicode>
  <outline>
    <contour>
      <point x="506" y="-0.479492" type="curve" smooth="yes"></point>
      <point x="264" y="-0.479492"></point>
      <point x="67" y="186.652"></point>
      <point x="67" y="485.628" type="curve" smooth="yes"></point>
      <point x="67" y="831.026"></point>
      <point x="293" y="1048"></point>
      <point x="618" y="1048" type="curve" smooth="yes"></point>
      <point x="745" y="1048"></point>
      <point x="912" y="1011"></point>
      <point x="1008" y="955" type="curve"></point>
      <point x="1008" y="-16" type="line" smooth="yes"></point>
      <point x="1008" y="-385"></point>
      <point x="822" y="-575"></point>
      <point x="513" y="-575" type="curve" smooth="yes"></point>
      <point x="402" y="-575"></point>
      <point x="275" y="-551"></point>
      <point x="135" y="-501" type="curve"></point>
      <point x="162" y="-298" type="line"></point>
      <point x="249" y="-342"></point>
      <point x="366" y="-379"></point>
      <point x="474" y="-379" type="curve" smooth="yes"></point>
      <point x="629" y="-379"></point>
      <point x="766" y="-303"></point>
      <point x="766" y="-62" type="curve" smooth="yes"></point>
      <point x="766" y="129" type="line"></point>
      <point x="694" y="30.6611"></point>
      <point x="617" y="-0.479492"></point>
    </contour>
    <contour>
      <point x="547" y="186" type="curve" smooth="yes"></point>
      <point x="695" y="186"></point>
      <point x="766" y="321"></point>
      <point x="766" y="514" type="curve" smooth="yes"></point>
      <point x="766" y="839" type="line"></point>
      <point x="730" y="853"></point>
      <point x="660" y="862"></point>
      <point x="607" y="862" type="curve" smooth="yes"></point>
      <point x="449" y="862"></point>
      <point x="311" y="734.164"></point>
      <point x="311" y="481.46" type="curve" smooth="yes"></point>
      <point x="311" y="277.633"></point>
      <point x="435" y="186"></point>
    </contour>
  </outline>
</glyph>
<glyph name="h" format="1">
  <advance width="1237"></advance>
  <unicode hex="0068"></unicode>
  <outline>
    <contour>
      <point x="768" y="323" type="line"></point>
      <point x="768" y="606" type="line" smooth="yes"></point>
      <point x="768" y="759"></point>
      <point x="720" y="858"></point>
      <point x="592" y="858" type="curve" smooth="yes"></point>
      <point x="430" y="858"></point>
      <point x="339" y="717"></point>
      <point x="339" y="503" type="curve" smooth="yes"></point>
      <point x="339" y="0" type="line"></point>
      <point x="97" y="0" type="line"></point>
      <point x="97" y="1560" type="line"></point>
      <point x="339" y="1560" type="line"></point>
      <point x="339" y="925" type="line"></point>
      <point x="425" y="1027"></point>
      <point x="562" y="1048"></point>
      <point x="653" y="1048" type="curve" smooth="yes"></point>
      <point x="880" y="1048"></point>
      <point x="1010" y="925"></point>
      <point x="1010" y="658" type="curve" smooth="yes"></point>
      <point x="1010" y="358" type="line" smooth="yes"></point>
      <point x="1010" y="195"></point>
      <point x="1071" y="166"></point>
      <point x="1236" y="213" type="curve"></point>
      <point x="1261" y="20" type="line"></point>
      <point x="991" y="-69.7772"></point>
      <point x="778" y="-30.0468"></point>
      <point x="768" y="298.094" type="curve"></point>
      <point x="768" y="298" type="line"></point>
    </contour>
  </outline>
</glyph>
<glyph name="i" format="1">
  <advance width="824"></advance>
  <unicode hex="0069"></unicode>
  <outline>
    <contour>
      <point x="294" y="1188" type="curve" smooth="yes"></point>
      <point x="196" y="1188"></point>
      <point x="133" y="1242"></point>
      <point x="133" y="1334" type="curve" smooth="yes"></point>
      <point x="133" y="1426"></point>
      <point x="196" y="1480"></point>
      <point x="296" y="1480" type="curve" smooth="yes"></point>
      <point x="393" y="1480"></point>
      <point x="457" y="1424"></point>
      <point x="457" y="1333" type="curve" smooth="yes"></point>
      <point x="457" y="1242"></point>
      <point x="393" y="1188"></point>
    </contour>
    <contour>
      <point x="168" y="323" type="curve" smooth="yes"></point>
      <point x="168" y="1026" type="line"></point>
      <point x="410" y="1026" type="line"></point>
      <point x="410" y="358" type="line" smooth="yes"></point>
      <point x="410" y="195"></point>
      <point x="471" y="166"></point>
      <point x="636" y="213" type="curve"></point>
      <point x="661" y="20" type="line"></point>
      <point x="385" y="-72"></point>
      <point x="168" y="-28"></point>
    </contour>
  </outline>
</glyph>
<glyph name="j" format="1">
  <advance width="948"></advance>
  <unicode hex="006A"></unicode>
  <outline>
    <contour>
      <point x="672" y="1188" type="curve" smooth="yes"></point>
      <point x="574" y="1188"></point>
      <point x="511" y="1242"></point>
      <point x="511" y="1334" type="curve" smooth="yes"></point>
      <point x="511" y="1426"></point>
      <point x="574" y="1480"></point>
      <point x="674" y="1480" type="curve" smooth="yes"></point>
      <point x="771" y="1480"></point>
      <point x="835" y="1424"></point>
      <point x="835" y="1333" type="curve" smooth="yes"></point>
      <point x="835" y="1242"></point>
      <point x="771" y="1188"></point>
    </contour>
    <contour>
      <point x="412" y="-499" type="curve" smooth="yes"></point>
      <point x="309" y="-499"></point>
      <point x="236" y="-475"></point>
      <point x="236" y="-475" type="curve"></point>
      <point x="257" y="-305" type="line"></point>
      <point x="257" y="-305"></point>
      <point x="322" y="-323"></point>
      <point x="390" y="-323" type="curve" smooth="yes"></point>
      <point x="488" y="-323"></point>
      <point x="540" y="-280"></point>
      <point x="540" y="-90" type="curve" smooth="yes"></point>
      <point x="540" y="1026" type="line"></point>
      <point x="782" y="1026" type="line"></point>
      <point x="782" y="-93" type="line" smooth="yes"></point>
      <point x="782" y="-325"></point>
      <point x="718" y="-499"></point>
    </contour>
  </outline>
</glyph>
<glyph name="k" format="1">
  <advance width="1113"></advance>
  <unicode hex="006B"></unicode>
  <outline>
    <contour>
      <point x="351" y="0" type="line"></point>
      <point x="109" y="0" type="line"></point>
      <point x="109" y="1560" type="line"></point>
      <point x="351" y="1560" type="line"></point>
      <point x="351" y="588" type="line"></point>
      <point x="780" y="1026" type="line"></point>
      <point x="1064" y="1026" type="line"></point>
      <point x="587" y="536" type="line"></point>
      <point x="1076" y="0" type="line"></point>
      <point x="802" y="0" type="line"></point>
      <point x="351" y="482" type="line"></point>
    </contour>
  </outline>
</glyph>
<glyph name="l" format="1">
  <advance width="783"></advance>
  <unicode hex="006C"></unicode>
  <outline>
    <contour>
      <point x="151" y="323" type="curve" smooth="yes"></point>
      <point x="151" y="1560" type="line"></point>
      <point x="393" y="1560" type="line"></point>
      <point x="393" y="358" type="line" smooth="yes"></point>
      <point x="393" y="195"></point>
      <point x="454" y="166"></point>
      <point x="619" y="213" type="curve"></point>
      <point x="644" y="20" type="line"></point>
      <point x="368" y="-72"></point>
      <point x="151" y="-28"></point>
    </contour>
  </outline>
</glyph>
<glyph name="m" format="1">
  <advance width="1732"></advance>
  <unicode hex="006D"></unicode>
  <outline>
    <contour>
      <point x="1360" y="323" type="curve" smooth="yes"></point>
      <point x="1360" y="617" type="line" smooth="yes"></point>
      <point x="1360" y="770"></point>
      <point x="1318" y="856"></point>
      <point x="1188" y="856" type="curve" smooth="yes"></point>
      <point x="1077" y="856"></point>
      <point x="971" y="758"></point>
      <point x="971" y="574" type="curve" smooth="yes"></point>
      <point x="971" y="0" type="line"></point>
      <point x="729" y="0" type="line"></point>
      <point x="729" y="617" type="line" smooth="yes"></point>
      <point x="729" y="782"></point>
      <point x="685" y="856"></point>
      <point x="577" y="856" type="curve" smooth="yes"></point>
      <point x="446" y="856"></point>
      <point x="332" y="765"></point>
      <point x="332" y="548" type="curve" smooth="yes"></point>
      <point x="332" y="0" type="line"></point>
      <point x="90" y="0" type="line"></point>
      <point x="90" y="524" type="line" smooth="yes"></point>
      <point x="90" y="834"></point>
      <point x="55" y="1026"></point>
      <point x="55" y="1026" type="curve"></point>
      <point x="303" y="1026" type="line"></point>
      <point x="303" y="1026"></point>
      <point x="311" y="988"></point>
      <point x="318" y="907" type="curve"></point>
      <point x="411" y="1013"></point>
      <point x="530" y="1048"></point>
      <point x="632" y="1048" type="curve" smooth="yes"></point>
      <point x="788" y="1048"></point>
      <point x="855" y="964"></point>
      <point x="903" y="862" type="curve"></point>
      <point x="997" y="1018"></point>
      <point x="1136" y="1048"></point>
      <point x="1240" y="1048" type="curve" smooth="yes"></point>
      <point x="1476" y="1048"></point>
      <point x="1602" y="890"></point>
      <point x="1602" y="623" type="curve" smooth="yes"></point>
      <point x="1602" y="358" type="line" smooth="yes"></point>
      <point x="1602" y="240.545"></point>
      <point x="1633" y="192.668"></point>
      <point x="1713" y="192.668" type="curve" smooth="yes"></point>
      <point x="1743" y="192.668"></point>
      <point x="1781" y="199.867"></point>
      <point x="1828" y="213" type="curve"></point>
      <point x="1853" y="20" type="line"></point>
      <point x="1773" y="-6.36694"></point>
      <point x="1699" y="-21.5631"></point>
      <point x="1633" y="-21.5631" type="curve" smooth="yes"></point>
      <point x="1470" y="-21.5631"></point>
      <point x="1360" y="72.5956"></point>
    </contour>
  </outline>
</glyph>
<glyph name="n" format="1">
  <advance width="1195"/>
  <unicode hex="006E"/>
  <outline>
    <contour>
      <point x="775" y="323" type="curve" smooth="yes"/>
      <point x="775" y="604" type="line" smooth="yes"/>
      <point x="775" y="757"/>
      <point x="729" y="857"/>
      <point x="595" y="857" type="curve" smooth="yes"/>
      <point x="449" y="857"/>
      <point x="350" y="717"/>
      <point x="350" y="522" type="curve" smooth="yes"/>
      <point x="350" y="0" type="line"/>
      <point x="108" y="0" type="line"/>
      <point x="108" y="524" type="line" smooth="yes"/>
      <point x="108" y="834"/>
      <point x="73" y="1026"/>
      <point x="73" y="1026" type="curve"/>
      <point x="321" y="1026" type="line"/>
      <point x="321" y="1026"/>
      <point x="329" y="987"/>
      <point x="336" y="906" type="curve"/>
      <point x="414" y="1002"/>
      <point x="521" y="1048"/>
      <point x="669" y="1048" type="curve" smooth="yes"/>
      <point x="898" y="1048"/>
      <point x="1017" y="914"/>
      <point x="1017" y="647" type="curve" smooth="yes"/>
      <point x="1017" y="336" type="line" smooth="yes"/>
      <point x="1017" y="173"/>
      <point x="1084" y="151"/>
      <point x="1233" y="194" type="curve"/>
      <point x="1258" y="20" type="line"/>
      <point x="982" y="-72"/>
      <point x="775" y="-28"/>
    </contour>
  </outline>
</glyph>
<glyph name="p" format="1">
  <advance width="1113"></advance>
  <unicode hex="0070"></unicode>
  <outline>
    <contour>
      <point x="356" y="179" type="line"></point>
      <point x="393" y="171"></point>
      <point x="444" y="164"></point>
      <point x="494" y="164" type="curve" smooth="yes"></point>
      <point x="701" y="164"></point>
      <point x="805" y="305"></point>
      <point x="805" y="555" type="curve" smooth="yes"></point>
      <point x="805" y="750"></point>
      <point x="724" y="862"></point>
      <point x="594" y="862" type="curve" smooth="yes"></point>
      <point x="463" y="862"></point>
      <point x="356" y="759"></point>
      <point x="356" y="520" type="curve" smooth="yes"></point>
    </contour>
    <contour>
      <point x="114" y="-574" type="line"></point>
      <point x="114" y="524" type="line" smooth="yes"></point>
      <point x="114" y="834"></point>
      <point x="79" y="1026"></point>
      <point x="79" y="1026" type="curve"></point>
      <point x="321" y="1026" type="line"></point>
      <point x="321" y="1026"></point>
      <point x="332" y="980"></point>
      <point x="340" y="895" type="curve"></point>
      <point x="398" y="1002"></point>
      <point x="490" y="1048"></point>
      <point x="631" y="1048" type="curve" smooth="yes"></point>
      <point x="805" y="1048"></point>
      <point x="1049" y="936"></point>
      <point x="1049" y="557" type="curve" smooth="yes"></point>
      <point x="1049" y="204"></point>
      <point x="851" y="-22"></point>
      <point x="530" y="-22" type="curve" smooth="yes"></point>
      <point x="466" y="-22"></point>
      <point x="407" y="-11"></point>
      <point x="356" y="2" type="curve"></point>
      <point x="356" y="-574" type="line"></point>
    </contour>
  </outline>
</glyph>
<glyph name="q" format="1">
  <advance width="1195"></advance>
  <unicode hex="0071"></unicode>
  <outline>
    <contour>
      <point x="1019" y="-552" type="line"></point>
      <point x="978" y="-568"></point>
      <point x="942" y="-575"></point>
      <point x="910" y="-575" type="curve" smooth="yes"></point>
      <point x="804" y="-575"></point>
      <point x="748" y="-497"></point>
      <point x="748" y="-391" type="curve" smooth="yes"></point>
      <point x="748" y="107" type="line"></point>
      <point x="680" y="14"></point>
      <point x="558" y="-22"></point>
      <point x="462" y="-22" type="curve" smooth="yes"></point>
      <point x="218" y="-22"></point>
      <point x="36" y="183"></point>
      <point x="36" y="444" type="curve" smooth="yes"></point>
      <point x="36" y="790"></point>
      <point x="255" y="1048"></point>
      <point x="588" y="1048" type="curve" smooth="yes"></point>
      <point x="715" y="1048"></point>
      <point x="894" y="998"></point>
      <point x="990" y="942" type="curve"></point>
      <point x="990" y="-357" type="line"></point>
      <point x="1252" y="-226" type="line"></point>
      <point x="1301" y="-405" type="line"></point>
    </contour>
    <contour>
      <point x="491" y="164" type="curve" smooth="yes"></point>
      <point x="639" y="164"></point>
      <point x="748" y="336"></point>
      <point x="748" y="529" type="curve" smooth="yes"></point>
      <point x="748" y="838" type="line"></point>
      <point x="712" y="852"></point>
      <point x="642" y="862"></point>
      <point x="589" y="862" type="curve" smooth="yes"></point>
      <point x="420" y="862"></point>
      <point x="284" y="709"></point>
      <point x="284" y="454" type="curve" smooth="yes"></point>
      <point x="284" y="302"></point>
      <point x="380" y="164"></point>
    </contour>
  </outline>
</glyph>
<glyph name="r" format="1">
  <advance width="779"></advance>
  <unicode hex="0072"></unicode>
  <outline>
    <contour>
      <point x="141" y="0" type="line"></point>
      <point x="141" y="524" type="line" smooth="yes"></point>
      <point x="141" y="834"></point>
      <point x="106" y="1026"></point>
      <point x="106" y="1026" type="curve"></point>
      <point x="354" y="1026" type="line"></point>
      <point x="354" y="1026"></point>
      <point x="361" y="986"></point>
      <point x="369" y="902" type="curve"></point>
      <point x="438" y="996"></point>
      <point x="543" y="1044"></point>
      <point x="629" y="1044" type="curve" smooth="yes"></point>
      <point x="709" y="1044"></point>
      <point x="750" y="1027"></point>
      <point x="762" y="1022" type="curve"></point>
      <point x="744" y="815" type="line"></point>
      <point x="700" y="826"></point>
      <point x="663" y="831"></point>
      <point x="628" y="831" type="curve" smooth="yes"></point>
      <point x="457" y="831"></point>
      <point x="383" y="648"></point>
      <point x="383" y="566" type="curve" smooth="yes"></point>
      <point x="383" y="553" type="line"></point>
      <point x="383" y="0" type="line"></point>
    </contour>
  </outline>
</glyph>
<glyph name="s" format="1">
  <advance width="948"></advance>
  <unicode hex="0073"></unicode>
  <outline>
    <contour>
      <point x="470" y="-22" type="curve" smooth="yes"></point>
      <point x="314" y="-22"></point>
      <point x="170" y="36"></point>
      <point x="108" y="69" type="curve"></point>
      <point x="161" y="246" type="line"></point>
      <point x="284" y="193"></point>
      <point x="386" y="167"></point>
      <point x="460" y="167" type="curve" smooth="yes"></point>
      <point x="546" y="167"></point>
      <point x="602" y="202"></point>
      <point x="602" y="283" type="curve" smooth="yes"></point>
      <point x="602" y="463"></point>
      <point x="114" y="420"></point>
      <point x="101" y="742" type="curve" smooth="yes"></point>
      <point x="97" y="839"></point>
      <point x="148" y="1048"></point>
      <point x="456" y="1048" type="curve" smooth="yes"></point>
      <point x="641" y="1048"></point>
      <point x="762" y="988"></point>
      <point x="789" y="973" type="curve"></point>
      <point x="732" y="810" type="line"></point>
      <point x="639" y="848"></point>
      <point x="549" y="868"></point>
      <point x="480" y="868" type="curve" smooth="yes"></point>
      <point x="390" y="868"></point>
      <point x="334" y="836"></point>
      <point x="332" y="767" type="curve" smooth="yes"></point>
      <point x="328" y="598"></point>
      <point x="838" y="631"></point>
      <point x="831" y="297" type="curve" smooth="yes"></point>
      <point x="827" y="101"></point>
      <point x="708" y="-22"></point>
    </contour>
  </outline>
</glyph>
<glyph name="t" format="1">
  <advance width="948"></advance>
  <unicode hex="0074"></unicode>
  <outline>
    <contour>
      <point x="67" y="862" type="line"></point>
      <point x="67" y="1026" type="line"></point>
      <point x="270" y="1026" type="line"></point>
      <point x="270" y="1419" type="line"></point>
      <point x="512" y="1419" type="line"></point>
      <point x="512" y="1026" type="line"></point>
      <point x="815" y="1026" type="line"></point>
      <point x="815" y="862" type="line"></point>
      <point x="512" y="862" type="line"></point>
      <point x="512" y="358" type="line" smooth="yes"></point>
      <point x="512" y="195"></point>
      <point x="635" y="166"></point>
      <point x="800" y="213" type="curve"></point>
      <point x="825" y="20" type="line"></point>
      <point x="549" y="-72"></point>
      <point x="270" y="-28"></point>
      <point x="270" y="323" type="curve" smooth="yes"></point>
      <point x="270" y="862" type="line"></point>
    </contour>
  </outline>
</glyph>
<glyph name="u" format="1">
  <advance width="1195"/>
  <unicode hex="0075"/>
  <outline>
    <contour>
      <point x="454" y="-22" type="curve" smooth="yes"/>
      <point x="230" y="-22"/>
      <point x="95" y="129"/>
      <point x="95" y="354" type="curve" smooth="yes"/>
      <point x="95" y="524" type="line" smooth="yes"/>
      <point x="95" y="834"/>
      <point x="73" y="1026"/>
      <point x="73" y="1026" type="curve"/>
      <point x="321" y="1026" type="line"/>
      <point x="321" y="1026"/>
      <point x="337" y="880"/>
      <point x="337" y="553" type="curve" smooth="yes"/>
      <point x="337" y="377" type="line" smooth="yes"/>
      <point x="337" y="228.765"/>
      <point x="407" y="164"/>
      <point x="526" y="164" type="curve" smooth="yes"/>
      <point x="651" y="164"/>
      <point x="733" y="237"/>
      <point x="733" y="409" type="curve" smooth="yes"/>
      <point x="733" y="1026" type="line"/>
      <point x="975" y="1026" type="line"/>
      <point x="975" y="346" type="line" smooth="yes"/>
      <point x="975" y="183"/>
      <point x="1026" y="147"/>
      <point x="1191" y="194" type="curve"/>
      <point x="1216" y="20" type="line"/>
      <point x="1002" y="-51"/>
      <point x="832" y="-42"/>
      <point x="764" y="130" type="curve"/>
      <point x="711" y="39"/>
      <point x="601" y="-22"/>
    </contour>
  </outline>
</glyph>
<glyph name="v" format="1">
  <advance width="1072"></advance>
  <unicode hex="0076"></unicode>
  <outline>
    <contour>
      <point x="442" y="0" type="line"></point>
      <point x="24" y="1026" type="line"></point>
      <point x="277" y="1026" type="line"></point>
      <point x="365" y="792"></point>
      <point x="450" y="557"></point>
      <point x="540" y="325" type="curve"></point>
      <point x="619" y="558"></point>
      <point x="698" y="792"></point>
      <point x="777" y="1026" type="curve"></point>
      <point x="1026" y="1026" type="line"></point>
      <point x="644" y="0" type="line"></point>
    </contour>
  </outline>
</glyph>
<glyph name="w" format="1">
  <advance width="1484"></advance>
  <unicode hex="0077"></unicode>
  <outline>
    <contour>
      <point x="335" y="0" type="line"></point>
      <point x="-53" y="1026" type="line"></point>
      <point x="193" y="1026" type="line"></point>
      <point x="273" y="792"></point>
      <point x="352" y="557"></point>
      <point x="434" y="325" type="curve"></point>
      <point x="511" y="544"></point>
      <point x="579" y="772"></point>
      <point x="652" y="995" type="curve"></point>
      <point x="809" y="995" type="line"></point>
      <point x="889" y="772"></point>
      <point x="968" y="548"></point>
      <point x="1048" y="325" type="curve"></point>
      <point x="1127" y="558"></point>
      <point x="1205" y="792"></point>
      <point x="1283" y="1026" type="curve"></point>
      <point x="1517" y="1026" type="line"></point>
      <point x="1151" y="0" type="line"></point>
      <point x="957" y="0" type="line"></point>
      <point x="738" y="582" type="line"></point>
      <point x="535" y="0" type="line"></point>
    </contour>
  </outline>
</glyph>
<glyph name="x" format="1">
  <advance width="1072"></advance>
  <unicode hex="0078"></unicode>
  <outline>
    <contour>
      <point x="0" y="0" type="line"></point>
      <point x="394" y="535" type="line"></point>
      <point x="45" y="1026" type="line"></point>
      <point x="330" y="1026" type="line"></point>
      <point x="549" y="697" type="line"></point>
      <point x="758" y="1026" type="line"></point>
      <point x="1037" y="1026" type="line"></point>
      <point x="673" y="520" type="line"></point>
      <point x="1054" y="0" type="line"></point>
      <point x="751" y="0" type="line"></point>
      <point x="513" y="361" type="line"></point>
      <point x="266" y="0" type="line"></point>
    </contour>
  </outline>
</glyph>
<glyph name="y" format="1">
  <advance width="1113"></advance>
  <unicode hex="0079"></unicode>
  <outline>
    <contour>
      <point x="466" y="0" type="curve" smooth="yes"></point>
      <point x="242" y="0"></point>
      <point x="107" y="151"></point>
      <point x="107" y="376" type="curve" smooth="yes"></point>
      <point x="107" y="524" type="line" smooth="yes"></point>
      <point x="107" y="834"></point>
      <point x="85" y="1026"></point>
      <point x="85" y="1026" type="curve"></point>
      <point x="333" y="1026" type="line"></point>
      <point x="333" y="1026"></point>
      <point x="349" y="880"></point>
      <point x="349" y="553" type="curve" smooth="yes"></point>
      <point x="349" y="399" type="line" smooth="yes"></point>
      <point x="349" y="273"></point>
      <point x="408" y="194"></point>
      <point x="516" y="187" type="curve" smooth="yes"></point>
      <point x="524" y="186"></point>
      <point x="531" y="186"></point>
      <point x="538" y="186" type="curve" smooth="yes"></point>
      <point x="663" y="186"></point>
      <point x="745" y="259"></point>
      <point x="745" y="431" type="curve" smooth="yes"></point>
      <point x="745" y="1026" type="line"></point>
      <point x="987" y="1026" type="line"></point>
      <point x="987" y="416" type="line"></point>
      <point x="988" y="417" type="line"></point>
      <point x="988" y="-16" type="line" smooth="yes"></point>
      <point x="988" y="-385"></point>
      <point x="802" y="-574"></point>
      <point x="492" y="-574" type="curve" smooth="yes"></point>
      <point x="381" y="-574"></point>
      <point x="255" y="-550"></point>
      <point x="115" y="-501" type="curve"></point>
      <point x="142" y="-298" type="line"></point>
      <point x="229" y="-342"></point>
      <point x="346" y="-379"></point>
      <point x="454" y="-379" type="curve" smooth="yes"></point>
      <point x="609" y="-379"></point>
      <point x="746" y="-303"></point>
      <point x="746" y="-62" type="curve" smooth="yes"></point>
      <point x="746" y="111" type="line"></point>
      <point x="686" y="44"></point>
      <point x="589" y="0"></point>
    </contour>
  </outline>
</glyph>
<glyph name="z" format="1">
  <advance width="935"></advance>
  <unicode hex="007A"></unicode>
  <outline>
    <contour>
      <point x="75" y="0" type="line"></point>
      <point x="75" y="155" type="line"></point>
      <point x="553" y="856" type="line"></point>
      <point x="81" y="856" type="line"></point>
      <point x="81" y="1026" type="line"></point>
      <point x="841" y="1026" type="line"></point>
      <point x="841" y="873" type="line"></point>
      <point x="371" y="170" type="line"></point>
      <point x="863" y="170" type="line"></point>
      <point x="863" y="0" type="line"></point>
    </contour>
  </outline>
</glyph>
<glyph name="braceleft" format="1">
  <advance width="783"></advance>
  <unicode hex="007B"></unicode>
  <outline>
    <contour>
      <point x="729" y="-196" type="line"></point>
      <point x="511" y="-196"></point>
      <point x="288" y="-107"></point>
      <point x="288" y="122" type="curve" smooth="yes"></point>
      <point x="288" y="299" type="line" smooth="yes"></point>
      <point x="288" y="473"></point>
      <point x="263" y="569"></point>
      <point x="103" y="586" type="curve"></point>
      <point x="103" y="768" type="line"></point>
      <point x="244" y="781"></point>
      <point x="288" y="869"></point>
      <point x="288" y="1024" type="curve" smooth="yes"></point>
      <point x="288" y="1190" type="line" smooth="yes"></point>
      <point x="288" y="1440"></point>
      <point x="476" y="1552"></point>
      <point x="729" y="1552" type="curve"></point>
      <point x="729" y="1384" type="line"></point>
      <point x="594" y="1384"></point>
      <point x="538" y="1343"></point>
      <point x="538" y="1207" type="curve" smooth="yes"></point>
      <point x="538" y="998" type="line" smooth="yes"></point>
      <point x="538" y="843"></point>
      <point x="451" y="729"></point>
      <point x="354" y="677" type="curve"></point>
      <point x="462" y="626"></point>
      <point x="538" y="513"></point>
      <point x="538" y="360" type="curve" smooth="yes"></point>
      <point x="538" y="203" type="line" smooth="yes"></point>
      <point x="538" y="42"></point>
      <point x="559" y="-28"></point>
      <point x="729" y="-28" type="curve"></point>
    </contour>
  </outline>
</glyph>
<glyph name="bar" format="1">
  <advance width="618"></advance>
  <unicode hex="007C"></unicode>
  <outline>
    <contour>
      <point x="199" y="-126" type="line"></point>
      <point x="199" y="1570" type="line"></point>
      <point x="431" y="1570" type="line"></point>
      <point x="431" y="-126" type="line"></point>
    </contour>
  </outline>
</glyph>
<glyph name="braceright" format="1">
  <advance width="948"></advance>
  <unicode hex="007D"></unicode>
  <outline>
    <contour>
      <point x="236" y="-326" type="curve"></point>
      <point x="236" y="-178" type="line"></point>
      <point x="396" y="-178"></point>
      <point x="425" y="-107"></point>
      <point x="425" y="103" type="curve" smooth="yes"></point>
      <point x="425" y="290" type="line" smooth="yes"></point>
      <point x="425" y="443"></point>
      <point x="478" y="556"></point>
      <point x="586" y="607" type="curve"></point>
      <point x="486" y="659"></point>
      <point x="421" y="772"></point>
      <point x="421" y="928" type="curve" smooth="yes"></point>
      <point x="421" y="1207" type="line" smooth="yes"></point>
      <point x="421" y="1343"></point>
      <point x="368" y="1400"></point>
      <point x="236" y="1404" type="curve"></point>
      <point x="236" y="1552" type="line"></point>
      <point x="488" y="1552"></point>
      <point x="615" y="1440"></point>
      <point x="615" y="1190" type="curve" smooth="yes"></point>
      <point x="615" y="954" type="line" smooth="yes"></point>
      <point x="615" y="799"></point>
      <point x="660" y="691"></point>
      <point x="801" y="678" type="curve"></point>
      <point x="799" y="536" type="line"></point>
      <point x="680" y="524"></point>
      <point x="618" y="455"></point>
      <point x="617" y="335" type="curve" smooth="yes"></point>
      <point x="615" y="-8" type="line" smooth="yes"></point>
      <point x="614" y="-237"></point>
      <point x="454" y="-317"></point>
    </contour>
  </outline>
</glyph>
<glyph name="asciitilde" format="1">
  <advance width="1278"></advance>
  <unicode hex="007E"></unicode>
  <outline>
    <contour>
      <point x="214" y="667" type="curve"></point>
      <point x="67" y="721" type="line"></point>
      <point x="106" y="959"></point>
      <point x="254" y="1081"></point>
      <point x="418" y="1081" type="curve" smooth="yes"></point>
      <point x="471" y="1081"></point>
      <point x="525" y="1069"></point>
      <point x="578" y="1043" type="curve" smooth="yes"></point>
      <point x="817" y="928" type="line" smooth="yes"></point>
      <point x="851" y="912"></point>
      <point x="881" y="904"></point>
      <point x="907" y="904" type="curve" smooth="yes"></point>
      <point x="1004" y="904"></point>
      <point x="1049" y="1006"></point>
      <point x="1088" y="1113" type="curve"></point>
      <point x="1235" y="1067" type="line"></point>
      <point x="1191" y="838"></point>
      <point x="1086" y="677"></point>
      <point x="913" y="677" type="curve" smooth="yes"></point>
      <point x="861" y="677"></point>
      <point x="803" y="692"></point>
      <point x="738" y="724" type="curve" smooth="yes"></point>
      <point x="508" y="838" type="line" smooth="yes"></point>
      <point x="472" y="856"></point>
      <point x="438" y="864"></point>
      <point x="408" y="864" type="curve" smooth="yes"></point>
      <point x="302" y="864"></point>
      <point x="235" y="765"></point>
    </contour>
  </outline>
</glyph>
<glyph name="exclamdown" format="1">
  <advance width="659"></advance>
  <unicode hex="00A1"></unicode>
  <outline>
    <contour>
      <point x="316" y="1208" type="curve" smooth="yes"></point>
      <point x="412" y="1208"></point>
      <point x="481" y="1142"></point>
      <point x="481" y="1047" type="curve" smooth="yes"></point>
      <point x="481" y="955"></point>
      <point x="412" y="890"></point>
      <point x="316" y="890" type="curve" smooth="yes"></point>
      <point x="220" y="890"></point>
      <point x="151" y="955"></point>
      <point x="151" y="1050" type="curve" smooth="yes"></point>
      <point x="151" y="1144"></point>
      <point x="220" y="1208"></point>
    </contour>
    <contour>
      <point x="388" y="698" type="line"></point>
      <point x="479" y="-260" type="line"></point>
      <point x="165" y="-260" type="line"></point>
      <point x="259" y="698" type="line"></point>
    </contour>
  </outline>
</glyph>
<glyph name="cent" format="1">
  <advance width="989"></advance>
  <unicode hex="00A2"></unicode>
  <outline>
    <contour>
      <point x="691" y="172.564" type="line"></point>
      <point x="746" y="184.068"></point>
      <point x="800" y="206.387"></point>
      <point x="855" y="236" type="curve"></point>
      <point x="928" y="81" type="line"></point>
      <point x="850" y="32.8978"></point>
      <point x="770" y="1.84873"></point>
      <point x="691" y="-12.6868" type="curve"></point>
      <point x="691" y="-414" type="line"></point>
      <point x="558" y="-414" type="line"></point>
      <point x="558" y="-21.7059" type="line"></point>
      <point x="298" y="-9.65523"></point>
      <point x="73" y="176.936"></point>
      <point x="73" y="519" type="curve" smooth="yes"></point>
      <point x="73" y="843.341"></point>
      <point x="295" y="1035.74"></point>
      <point x="558" y="1047.43" type="curve"></point>
      <point x="558" y="1366" type="line"></point>
      <point x="691" y="1366" type="line"></point>
      <point x="691" y="1037.84" type="line"></point>
      <point x="759" y="1024.83"></point>
      <point x="828" y="999.161"></point>
      <point x="898" y="960" type="curve"></point>
      <point x="833" y="798" type="line"></point>
      <point x="782" y="823.791"></point>
      <point x="736" y="842.025"></point>
      <point x="691" y="852.228" type="curve"></point>
    </contour>
    <contour>
      <point x="558" y="167.638" type="curve"></point>
      <point x="558" y="858.238" type="line"></point>
      <point x="422" y="837.855"></point>
      <point x="321" y="730.266"></point>
      <point x="321" y="520" type="curve" smooth="yes"></point>
      <point x="321" y="288.122"></point>
      <point x="427" y="187.537"></point>
    </contour>
  </outline>
</glyph>
<glyph name="sterling" format="1">
  <advance width="1031"></advance>
  <unicode hex="00A3"></unicode>
  <outline>
    <contour>
      <point x="52" y="0" type="line"></point>
      <point x="50" y="142" type="line"></point>
      <point x="156" y="204"></point>
      <point x="211" y="316"></point>
      <point x="211" y="540" type="curve" smooth="yes"></point>
      <point x="211" y="675" type="line"></point>
      <point x="24" y="675" type="line"></point>
      <point x="24" y="820" type="line"></point>
      <point x="211" y="820" type="line"></point>
      <point x="211" y="909" type="line" smooth="yes"></point>
      <point x="211" y="1266"></point>
      <point x="316" y="1480"></point>
      <point x="651" y="1480" type="curve" smooth="yes"></point>
      <point x="785" y="1480"></point>
      <point x="896" y="1440"></point>
      <point x="975" y="1378" type="curve"></point>
      <point x="905" y="1200" type="line"></point>
      <point x="835" y="1243"></point>
      <point x="753" y="1272"></point>
      <point x="680" y="1272" type="curve" smooth="yes"></point>
      <point x="559" y="1272"></point>
      <point x="459" y="1194"></point>
      <point x="459" y="969" type="curve" smooth="yes"></point>
      <point x="459" y="820" type="line"></point>
      <point x="797" y="820" type="line"></point>
      <point x="797" y="675" type="line"></point>
      <point x="461" y="675" type="line"></point>
      <point x="461" y="595" type="line" smooth="yes"></point>
      <point x="461" y="391"></point>
      <point x="404" y="234"></point>
      <point x="301" y="177" type="curve"></point>
      <point x="950" y="177" type="line"></point>
      <point x="950" y="0" type="line"></point>
    </contour>
  </outline>
</glyph>
<glyph name="currency" format="1">
  <advance width="1154"></advance>
  <unicode hex="00A4"></unicode>
  <outline>
    <contour>
      <point x="1047" y="361" type="line"></point>
      <point x="854" y="550" type="line"></point>
      <point x="781" y="479"></point>
      <point x="684" y="456"></point>
      <point x="578" y="456" type="curve" smooth="yes"></point>
      <point x="480" y="456"></point>
      <point x="388" y="475"></point>
      <point x="316" y="540" type="curve"></point>
      <point x="133" y="343" type="line"></point>
      <point x="91" y="387" type="line"></point>
      <point x="276" y="581" type="line"></point>
      <point x="201" y="662"></point>
      <point x="153" y="772"></point>
      <point x="153" y="891" type="curve" smooth="yes"></point>
      <point x="153" y="1000"></point>
      <point x="196" y="1101"></point>
      <point x="263" y="1180" type="curve"></point>
      <point x="73" y="1365" type="line"></point>
      <point x="118" y="1410" type="line"></point>
      <point x="304" y="1226" type="line"></point>
      <point x="377" y="1298"></point>
      <point x="472" y="1325"></point>
      <point x="573" y="1325" type="curve" smooth="yes"></point>
      <point x="589" y="1325" type="line"></point>
      <point x="687" y="1322"></point>
      <point x="776" y="1301"></point>
      <point x="846" y="1236" type="curve"></point>
      <point x="1025" y="1429" type="line"></point>
      <point x="1073" y="1384" type="line"></point>
      <point x="887" y="1191" type="line"></point>
      <point x="959" y="1111"></point>
      <point x="1003" y="1005"></point>
      <point x="1003" y="890" type="curve" smooth="yes"></point>
      <point x="1003" y="879" type="line"></point>
      <point x="1000" y="769"></point>
      <point x="961" y="670"></point>
      <point x="894" y="593" type="curve"></point>
      <point x="1090" y="403" type="line"></point>
    </contour>
    <contour>
      <point x="576" y="546" type="curve" smooth="yes"></point>
      <point x="756" y="546"></point>
      <point x="890" y="680"></point>
      <point x="895" y="879" type="curve"></point>
      <point x="895" y="888" type="line" smooth="yes"></point>
      <point x="895" y="1082"></point>
      <point x="761" y="1223"></point>
      <point x="585" y="1227" type="curve"></point>
      <point x="576" y="1227" type="line" smooth="yes"></point>
      <point x="400" y="1227"></point>
      <point x="258" y="1083"></point>
      <point x="258" y="888" type="curve" smooth="yes"></point>
      <point x="258" y="688"></point>
      <point x="397" y="546"></point>
    </contour>
  </outline>
</glyph>
<glyph name="yen" format="1">
  <advance width="1195"></advance>
  <unicode hex="00A5"></unicode>
  <outline>
    <contour>
      <point x="747" y="283" type="line"></point>
      <point x="747" y="0" type="line"></point>
      <point x="497" y="0" type="line"></point>
      <point x="497" y="283" type="line"></point>
      <point x="74" y="283" type="line"></point>
      <point x="74" y="422" type="line"></point>
      <point x="483" y="422" type="line"></point>
      <point x="483" y="608" type="line"></point>
      <point x="67" y="608" type="line"></point>
      <point x="67" y="750" type="line"></point>
      <point x="422" y="750" type="line"></point>
      <point x="-11" y="1560" type="line"></point>
      <point x="259" y="1560" type="line"></point>
      <point x="620" y="838" type="line"></point>
      <point x="983" y="1560" type="line"></point>
      <point x="1241" y="1560" type="line"></point>
      <point x="818" y="750" type="line"></point>
      <point x="1075" y="750" type="line"></point>
      <point x="1075" y="608" type="line"></point>
      <point x="747" y="608" type="line"></point>
      <point x="747" y="422" type="line"></point>
      <point x="1079" y="422" type="line"></point>
      <point x="1079" y="283" type="line"></point>
    </contour>
  </outline>
</glyph>
<glyph name="brokenbar" format="1">
  <advance width="659"></advance>
  <unicode hex="00A6"></unicode>
  <outline>
    <contour>
      <point x="199" y="-277" type="line"></point>
      <point x="199" y="518" type="line"></point>
      <point x="439" y="518" type="line"></point>
      <point x="439" y="-277" type="line"></point>
    </contour>
    <contour>
      <point x="199" y="772" type="line"></point>
      <point x="199" y="1526" type="line"></point>
      <point x="439" y="1526" type="line"></point>
      <point x="439" y="772" type="line"></point>
    </contour>
  </outline>
</glyph>
<glyph name="section" format="1">
  <advance width="1031"></advance>
  <unicode hex="00A7"></unicode>
  <outline>
    <contour>
      <point x="916" y="143" type="curve" smooth="yes"></point>
      <point x="916" y="-82"></point>
      <point x="712" y="-182"></point>
      <point x="470" y="-182" type="curve" smooth="yes"></point>
      <point x="352" y="-182"></point>
      <point x="224" y="-158"></point>
      <point x="107" y="-113" type="curve"></point>
      <point x="105" y="106" type="line"></point>
      <point x="227" y="63"></point>
      <point x="337" y="45"></point>
      <point x="427" y="45" type="curve" smooth="yes"></point>
      <point x="561" y="45"></point>
      <point x="650" y="84"></point>
      <point x="669" y="133" type="curve" smooth="yes"></point>
      <point x="673" y="144"></point>
      <point x="675" y="154"></point>
      <point x="675" y="163" type="curve" smooth="yes"></point>
      <point x="675" y="232"></point>
      <point x="565" y="261"></point>
      <point x="460" y="302" type="curve"></point>
      <point x="221" y="398"></point>
      <point x="73" y="443"></point>
      <point x="73" y="657" type="curve" smooth="yes"></point>
      <point x="73" y="797"></point>
      <point x="191" y="865"></point>
      <point x="301" y="912" type="curve"></point>
      <point x="194" y="967"></point>
      <point x="118" y="1045"></point>
      <point x="118" y="1183" type="curve" smooth="yes"></point>
      <point x="118" y="1397"></point>
      <point x="342" y="1480"></point>
      <point x="571" y="1480" type="curve" smooth="yes"></point>
      <point x="676" y="1480"></point>
      <point x="749" y="1461"></point>
      <point x="844" y="1436" type="curve"></point>
      <point x="844" y="1236" type="line"></point>
      <point x="770" y="1266"></point>
      <point x="674" y="1283"></point>
      <point x="588" y="1283" type="curve" smooth="yes"></point>
      <point x="473" y="1283"></point>
      <point x="377" y="1253"></point>
      <point x="371" y="1187" type="curve"></point>
      <point x="371" y="1176" type="line" smooth="yes"></point>
      <point x="371" y="1097"></point>
      <point x="445" y="1062"></point>
      <point x="510" y="1037" type="curve" smooth="yes"></point>
      <point x="763" y="941"></point>
      <point x="944" y="872"></point>
      <point x="944" y="665" type="curve" smooth="yes"></point>
      <point x="944" y="525"></point>
      <point x="824" y="453"></point>
      <point x="719" y="399" type="curve"></point>
      <point x="826" y="353"></point>
      <point x="916" y="278"></point>
    </contour>
    <contour>
      <point x="552" y="501" type="curve"></point>
      <point x="614" y="539"></point>
      <point x="688" y="586"></point>
      <point x="688" y="660" type="curve" smooth="yes"></point>
      <point x="688" y="771"></point>
      <point x="539" y="791"></point>
      <point x="461" y="831" type="curve"></point>
      <point x="403" y="802"></point>
      <point x="332" y="758"></point>
      <point x="332" y="676" type="curve" smooth="yes"></point>
      <point x="332" y="562"></point>
      <point x="446" y="541"></point>
    </contour>
  </outline>
</glyph>
<glyph name="dieresis" format="1">
  <advance width="989"></advance>
  <unicode hex="00A8"></unicode>
  <outline>
    <contour>
      <point x="236" y="1304" type="curve" smooth="yes"></point>
      <point x="236" y="1345" type="line" smooth="yes"></point>
      <point x="236" y="1417"></point>
      <point x="295" y="1476"></point>
      <point x="367" y="1476" type="curve" smooth="yes"></point>
      <point x="439" y="1476"></point>
      <point x="497" y="1417"></point>
      <point x="497" y="1345" type="curve" smooth="yes"></point>
      <point x="497" y="1304" type="line" smooth="yes"></point>
      <point x="497" y="1232"></point>
      <point x="439" y="1174"></point>
      <point x="367" y="1174" type="curve" smooth="yes"></point>
      <point x="295" y="1174"></point>
      <point x="236" y="1232"></point>
    </contour>
    <contour>
      <point x="742" y="1304" type="curve" smooth="yes"></point>
      <point x="742" y="1345" type="line" smooth="yes"></point>
      <point x="742" y="1417"></point>
      <point x="801" y="1476"></point>
      <point x="873" y="1476" type="curve" smooth="yes"></point>
      <point x="945" y="1476"></point>
      <point x="1003" y="1417"></point>
      <point x="1003" y="1345" type="curve" smooth="yes"></point>
      <point x="1003" y="1304" type="line" smooth="yes"></point>
      <point x="1003" y="1232"></point>
      <point x="945" y="1174"></point>
      <point x="873" y="1174" type="curve" smooth="yes"></point>
      <point x="801" y="1174"></point>
      <point x="742" y="1232"></point>
    </contour>
  </outline>
</glyph>
<glyph name="copyright" format="1">
  <advance width="1608"></advance>
  <unicode hex="00A9"></unicode>
  <outline>
    <contour>
      <point x="765" y="249" type="curve" smooth="yes"></point>
      <point x="470" y="249"></point>
      <point x="298" y="473"></point>
      <point x="298" y="729" type="curve" smooth="yes"></point>
      <point x="298" y="1042"></point>
      <point x="506" y="1208"></point>
      <point x="775" y="1208" type="curve" smooth="yes"></point>
      <point x="885" y="1208"></point>
      <point x="980" y="1174"></point>
      <point x="1058" y="1105" type="curve"></point>
      <point x="1028" y="985" type="line"></point>
      <point x="958" y="1048"></point>
      <point x="872" y="1080"></point>
      <point x="769" y="1080" type="curve" smooth="yes"></point>
      <point x="559" y="1080"></point>
      <point x="451" y="920"></point>
      <point x="451" y="733" type="curve" smooth="yes"></point>
      <point x="451" y="504"></point>
      <point x="584" y="380"></point>
      <point x="795" y="380" type="curve" smooth="yes"></point>
      <point x="892" y="380"></point>
      <point x="966" y="411"></point>
      <point x="1024" y="460" type="curve"></point>
      <point x="1061" y="339" type="line"></point>
      <point x="978" y="279"></point>
      <point x="880" y="249"></point>
    </contour>
    <contour>
      <point x="739" y="80" type="curve" smooth="yes"></point>
      <point x="1090" y="80"></point>
      <point x="1368" y="374"></point>
      <point x="1368" y="725" type="curve" smooth="yes"></point>
      <point x="1368" y="1077"></point>
      <point x="1090" y="1371"></point>
      <point x="739" y="1371" type="curve" smooth="yes"></point>
      <point x="387" y="1371"></point>
      <point x="109" y="1077"></point>
      <point x="109" y="725" type="curve" smooth="yes"></point>
      <point x="109" y="374"></point>
      <point x="387" y="80"></point>
    </contour>
    <contour>
      <point x="740" y="1480" type="curve" smooth="yes"></point>
      <point x="1154" y="1480"></point>
      <point x="1492" y="1141"></point>
      <point x="1492" y="727" type="curve" smooth="yes"></point>
      <point x="1492" y="314"></point>
      <point x="1154" y="-25"></point>
      <point x="740" y="-25" type="curve" smooth="yes"></point>
      <point x="326" y="-25"></point>
      <point x="-11" y="314"></point>
      <point x="-11" y="727" type="curve" smooth="yes"></point>
      <point x="-11" y="1141"></point>
      <point x="326" y="1480"></point>
    </contour>
  </outline>
</glyph>
<glyph name="ordfeminine" format="1">
  <advance width="948"></advance>
  <unicode hex="00AA"></unicode>
  <outline>
    <contour>
      <point x="411" y="636" type="curve" smooth="yes"></point>
      <point x="284" y="636"></point>
      <point x="187" y="690"></point>
      <point x="143" y="779" type="curve" smooth="yes"></point>
      <point x="128" y="809"></point>
      <point x="121" y="842"></point>
      <point x="121" y="879" type="curve" smooth="yes"></point>
      <point x="121" y="1039"></point>
      <point x="266" y="1112"></point>
      <point x="403" y="1134" type="curve" smooth="yes"></point>
      <point x="482" y="1146"></point>
      <point x="564" y="1144"></point>
      <point x="643" y="1156" type="curve"></point>
      <point x="643" y="1166" type="line" smooth="yes"></point>
      <point x="643" y="1295"></point>
      <point x="602" y="1342"></point>
      <point x="486" y="1342" type="curve" smooth="yes"></point>
      <point x="381" y="1342"></point>
      <point x="305" y="1308"></point>
      <point x="253" y="1231" type="curve"></point>
      <point x="174" y="1319" type="line"></point>
      <point x="234" y="1420"></point>
      <point x="351" y="1468"></point>
      <point x="492" y="1468" type="curve" smooth="yes"></point>
      <point x="669" y="1468"></point>
      <point x="799" y="1378"></point>
      <point x="799" y="1184" type="curve"></point>
      <point x="797" y="807" type="line" smooth="yes"></point>
      <point x="797" y="755"></point>
      <point x="799" y="728"></point>
      <point x="805" y="657" type="curve"></point>
      <point x="651" y="657" type="line"></point>
      <point x="644" y="743" type="line"></point>
      <point x="597" y="679"></point>
      <point x="517" y="636"></point>
    </contour>
    <contour>
      <point x="433" y="757" type="curve" smooth="yes"></point>
      <point x="571" y="757"></point>
      <point x="636" y="864"></point>
      <point x="643" y="1008" type="curve"></point>
      <point x="643" y="1037" type="line"></point>
      <point x="524" y="1011"></point>
      <point x="281" y="1044"></point>
      <point x="281" y="881" type="curve" smooth="yes"></point>
      <point x="281" y="790"></point>
      <point x="349" y="757"></point>
    </contour>
  </outline>
</glyph>
<glyph name="guillemotleft" format="1">
  <advance width="989"></advance>
  <unicode hex="00AB"></unicode>
  <outline>
    <contour>
      <point x="357" y="301" type="line"></point>
      <point x="48" y="735" type="line"></point>
      <point x="363" y="1174" type="line"></point>
      <point x="533" y="1174" type="line"></point>
      <point x="248" y="735" type="line"></point>
      <point x="523" y="301" type="line"></point>
    </contour>
    <contour>
      <point x="754" y="301" type="line"></point>
      <point x="465" y="735" type="line"></point>
      <point x="760" y="1174" type="line"></point>
      <point x="947" y="1174" type="line"></point>
      <point x="644" y="735" type="line"></point>
      <point x="939" y="301" type="line"></point>
    </contour>
  </outline>
</glyph>
<glyph name="logicalnot" format="1">
  <advance width="1360"></advance>
  <unicode hex="00AC"></unicode>
  <outline>
    <contour>
      <point x="1040" y="419" type="line"></point>
      <point x="1040" y="913" type="line"></point>
      <point x="61" y="913" type="line"></point>
      <point x="61" y="1077" type="line"></point>
      <point x="1216" y="1077" type="line"></point>
      <point x="1216" y="419" type="line"></point>
    </contour>
  </outline>
</glyph>
<glyph name="registered" format="1">
  <advance width="1897"></advance>
  <unicode hex="00AE"></unicode>
  <outline>
    <contour>
      <point x="630" y="221" type="line"></point>
      <point x="630" y="1299" type="line"></point>
      <point x="919" y="1299" type="line" smooth="yes"></point>
      <point x="1074" y="1299"></point>
      <point x="1189" y="1274"></point>
      <point x="1264" y="1222" type="curve" smooth="yes"></point>
      <point x="1339" y="1170"></point>
      <point x="1376" y="1095"></point>
      <point x="1376" y="998" type="curve" smooth="yes"></point>
      <point x="1376" y="810"></point>
      <point x="1249" y="722"></point>
      <point x="1095" y="700" type="curve"></point>
      <point x="1176" y="615"></point>
      <point x="1238" y="505"></point>
      <point x="1302" y="391" type="curve" smooth="yes"></point>
      <point x="1331" y="340"></point>
      <point x="1362" y="285"></point>
      <point x="1396" y="221" type="curve"></point>
      <point x="1218" y="221" type="line"></point>
      <point x="1087" y="469" type="line" smooth="yes"></point>
      <point x="1043" y="554"></point>
      <point x="997" y="634"></point>
      <point x="932" y="680" type="curve"></point>
      <point x="787" y="680" type="line"></point>
      <point x="787" y="221" type="line"></point>
    </contour>
    <contour>
      <point x="965" y="-138" type="curve" smooth="yes"></point>
      <point x="698" y="-138"></point>
      <point x="498" y="-22"></point>
      <point x="356" y="125" type="curve" smooth="yes"></point>
      <point x="257" y="228"></point>
      <point x="173" y="360"></point>
      <point x="125" y="518" type="curve" smooth="yes"></point>
      <point x="103" y="593"></point>
      <point x="91" y="671"></point>
      <point x="91" y="752" type="curve" smooth="yes"></point>
      <point x="91" y="1035"></point>
      <point x="221" y="1237"></point>
      <point x="358" y="1379" type="curve" smooth="yes"></point>
      <point x="500" y="1526"></point>
      <point x="696" y="1642"></point>
      <point x="960" y="1642" type="curve" smooth="yes"></point>
      <point x="1227" y="1642"></point>
      <point x="1424" y="1524"></point>
      <point x="1565" y="1377" type="curve" smooth="yes"></point>
      <point x="1663" y="1274"></point>
      <point x="1749" y="1144"></point>
      <point x="1797" y="985" type="curve" smooth="yes"></point>
      <point x="1819" y="910"></point>
      <point x="1831" y="832"></point>
      <point x="1831" y="751" type="curve" smooth="yes"></point>
      <point x="1831" y="469"></point>
      <point x="1702" y="267"></point>
      <point x="1565" y="125" type="curve"></point>
      <point x="1425" y="-22"></point>
      <point x="1229" y="-138"></point>
    </contour>
    <contour>
      <point x="965" y="0" type="curve" smooth="yes"></point>
      <point x="1191" y="0"></point>
      <point x="1358" y="93"></point>
      <point x="1476" y="217" type="curve"></point>
      <point x="1592" y="337"></point>
      <point x="1682" y="510"></point>
      <point x="1682" y="751" type="curve" smooth="yes"></point>
      <point x="1682" y="985"></point>
      <point x="1590" y="1166"></point>
      <point x="1475" y="1286" type="curve" smooth="yes"></point>
      <point x="1357" y="1410"></point>
      <point x="1179" y="1504"></point>
      <point x="960" y="1504" type="curve" smooth="yes"></point>
      <point x="741" y="1504"></point>
      <point x="567" y="1411"></point>
      <point x="449" y="1288" type="curve" smooth="yes"></point>
      <point x="333" y="1167"></point>
      <point x="240" y="987"></point>
      <point x="240" y="754" type="curve" smooth="yes"></point>
      <point x="240" y="518"></point>
      <point x="333" y="337"></point>
      <point x="449" y="217" type="curve"></point>
      <point x="568" y="92"></point>
      <point x="745" y="0"></point>
    </contour>
    <contour>
      <point x="784" y="819" type="line"></point>
      <point x="917" y="819" type="line" smooth="yes"></point>
      <point x="1063" y="819"></point>
      <point x="1211" y="821"></point>
      <point x="1211" y="980" type="curve" smooth="yes"></point>
      <point x="1211" y="1157"></point>
      <point x="1078" y="1158"></point>
      <point x="915" y="1158" type="curve" smooth="yes"></point>
      <point x="783" y="1158" type="line"></point>
    </contour>
  </outline>
</glyph>
<glyph name="macron" format="1">
  <advance width="907"></advance>
  <unicode hex="00AF"></unicode>
  <outline>
    <contour>
      <point x="236" y="1313" type="line"></point>
      <point x="236" y="1470" type="line"></point>
      <point x="890" y="1470" type="line"></point>
      <point x="890" y="1313" type="line"></point>
    </contour>
  </outline>
</glyph>
<glyph name="degree" format="1">
  <advance width="907"></advance>
  <unicode hex="00B0"></unicode>
  <outline>
    <contour>
      <point x="453" y="915" type="curve" smooth="yes"></point>
      <point x="580" y="915"></point>
      <point x="668" y="1017"></point>
      <point x="668" y="1125" type="curve" smooth="yes"></point>
      <point x="668" y="1262"></point>
      <point x="559" y="1333"></point>
      <point x="453" y="1333" type="curve" smooth="yes"></point>
      <point x="329" y="1333"></point>
      <point x="238" y="1235"></point>
      <point x="238" y="1125" type="curve" smooth="yes"></point>
      <point x="238" y="985"></point>
      <point x="348" y="915"></point>
    </contour>
    <contour>
      <point x="453" y="778" type="curve" smooth="yes"></point>
      <point x="241" y="778"></point>
      <point x="91" y="946"></point>
      <point x="91" y="1126" type="curve" smooth="yes"></point>
      <point x="91" y="1347"></point>
      <point x="281" y="1469"></point>
      <point x="453" y="1469" type="curve" smooth="yes"></point>
      <point x="667" y="1469"></point>
      <point x="815" y="1303"></point>
      <point x="815" y="1126" type="curve" smooth="yes"></point>
      <point x="815" y="901"></point>
      <point x="625" y="778"></point>
    </contour>
  </outline>
</glyph>
<glyph name="plusminus" format="1">
  <advance width="1278"></advance>
  <unicode hex="00B1"></unicode>
  <outline>
    <contour>
      <point x="557" y="322" type="line"></point>
      <point x="557" y="759" type="line"></point>
      <point x="61" y="759" type="line"></point>
      <point x="61" y="921" type="line"></point>
      <point x="555" y="921" type="line"></point>
      <point x="555" y="1359" type="line"></point>
      <point x="718" y="1359" type="line"></point>
      <point x="718" y="921" type="line"></point>
      <point x="1220" y="921" type="line"></point>
      <point x="1220" y="759" type="line"></point>
      <point x="723" y="759" type="line"></point>
      <point x="723" y="322" type="line"></point>
    </contour>
    <contour>
      <point x="61" y="0" type="line"></point>
      <point x="61" y="163" type="line"></point>
      <point x="1225" y="163" type="line"></point>
      <point x="1225" y="0" type="line"></point>
    </contour>
  </outline>
</glyph>
<glyph name="uni00B2" format="1">
  <advance width="866"></advance>
  <unicode hex="00B2"></unicode>
  <outline>
    <contour>
      <point x="147" y="532" type="line"></point>
      <point x="147" y="661" type="line"></point>
      <point x="505" y="1028" type="line" smooth="yes"></point>
      <point x="562" y="1086"></point>
      <point x="586" y="1144"></point>
      <point x="586" y="1193" type="curve" smooth="yes"></point>
      <point x="586" y="1275"></point>
      <point x="518" y="1334"></point>
      <point x="430" y="1334" type="curve" smooth="yes"></point>
      <point x="342" y="1334"></point>
      <point x="260" y="1302"></point>
      <point x="194" y="1202" type="curve"></point>
      <point x="103" y="1294" type="line"></point>
      <point x="184" y="1412"></point>
      <point x="294" y="1468"></point>
      <point x="429" y="1468" type="curve" smooth="yes"></point>
      <point x="612" y="1468"></point>
      <point x="732" y="1353"></point>
      <point x="732" y="1206" type="curve" smooth="yes"></point>
      <point x="732" y="1122"></point>
      <point x="693" y="1028"></point>
      <point x="604" y="938" type="curve" smooth="yes"></point>
      <point x="339" y="670" type="line"></point>
      <point x="725" y="670" type="line"></point>
      <point x="725" y="532" type="line"></point>
    </contour>
  </outline>
</glyph>
<glyph name="uni00B3" format="1">
  <advance width="866"></advance>
  <unicode hex="00B3"></unicode>
  <outline>
    <contour>
      <point x="404" y="476" type="curve" smooth="yes"></point>
      <point x="278" y="476"></point>
      <point x="182" y="523"></point>
      <point x="115" y="590" type="curve"></point>
      <point x="185" y="702" type="line"></point>
      <point x="251" y="642"></point>
      <point x="322" y="611"></point>
      <point x="398" y="611" type="curve" smooth="yes"></point>
      <point x="508" y="611"></point>
      <point x="603" y="663"></point>
      <point x="603" y="771" type="curve" smooth="yes"></point>
      <point x="603" y="902"></point>
      <point x="483" y="928"></point>
      <point x="351" y="928" type="curve" smooth="yes"></point>
      <point x="285" y="928" type="line"></point>
      <point x="285" y="1067" type="line"></point>
      <point x="343" y="1067" type="line" smooth="yes"></point>
      <point x="462" y="1067"></point>
      <point x="574" y="1091"></point>
      <point x="574" y="1209" type="curve" smooth="yes"></point>
      <point x="574" y="1304"></point>
      <point x="503" y="1340"></point>
      <point x="408" y="1340" type="curve" smooth="yes"></point>
      <point x="312" y="1340"></point>
      <point x="241" y="1295"></point>
      <point x="183" y="1249" type="curve"></point>
      <point x="115" y="1361" type="line"></point>
      <point x="179" y="1425"></point>
      <point x="289" y="1480"></point>
      <point x="411" y="1480" type="curve" smooth="yes"></point>
      <point x="551" y="1480"></point>
      <point x="654" y="1418"></point>
      <point x="703" y="1327" type="curve" smooth="yes"></point>
      <point x="721" y="1294"></point>
      <point x="730" y="1256"></point>
      <point x="730" y="1212" type="curve" smooth="yes"></point>
      <point x="730" y="1108"></point>
      <point x="677" y="1039"></point>
      <point x="604" y="1000" type="curve"></point>
      <point x="692" y="961"></point>
      <point x="755" y="888"></point>
      <point x="755" y="768" type="curve" smooth="yes"></point>
      <point x="755" y="620"></point>
      <point x="654" y="532"></point>
      <point x="539" y="496" type="curve" smooth="yes"></point>
      <point x="497" y="483"></point>
      <point x="451" y="476"></point>
    </contour>
  </outline>
</glyph>
<glyph name="acute" format="1">
  <advance width="783"></advance>
  <unicode hex="00B4"></unicode>
  <outline>
    <contour>
      <point x="103" y="122" type="line"></point>
      <point x="369" y="498" type="line"></point>
      <point x="688" y="498" type="line"></point>
      <point x="326" y="122" type="line"></point>
    </contour>
  </outline>
</glyph>
<glyph name="paragraph" format="1">
  <advance width="1113"></advance>
  <unicode hex="00B6"></unicode>
  <outline>
    <contour>
      <point x="421" y="-139" type="line"></point>
      <point x="421" y="748" type="line"></point>
      <point x="184" y="748"></point>
      <point x="42" y="879"></point>
      <point x="42" y="1102" type="curve" smooth="yes"></point>
      <point x="42" y="1412"></point>
      <point x="334" y="1457"></point>
      <point x="614" y="1457" type="curve" smooth="yes"></point>
      <point x="1068" y="1457" type="line"></point>
      <point x="1068" y="1311" type="line"></point>
      <point x="946" y="1311" type="line"></point>
      <point x="946" y="-139" type="line"></point>
      <point x="794" y="-139" type="line"></point>
      <point x="794" y="1311" type="line"></point>
      <point x="573" y="1311" type="line"></point>
      <point x="573" y="-139" type="line"></point>
    </contour>
  </outline>
</glyph>
<glyph name="periodcentered" format="1">
  <advance width="659"></advance>
  <unicode hex="00B7"></unicode>
  <outline>
    <contour>
      <point x="199" y="1025" type="line"></point>
      <point x="199" y="1272" type="line"></point>
      <point x="454" y="1272" type="line"></point>
      <point x="454" y="1025" type="line"></point>
    </contour>
  </outline>
</glyph>
<glyph name="cedilla" format="1">
  <advance width="824"></advance>
  <unicode hex="00B8"></unicode>
  <outline>
    <contour>
      <point x="442" y="-481" type="curve" smooth="yes"></point>
      <point x="371" y="-481"></point>
      <point x="300" y="-469"></point>
      <point x="236" y="-456" type="curve"></point>
      <point x="246" y="-356" type="line"></point>
      <point x="304" y="-370"></point>
      <point x="360" y="-384"></point>
      <point x="423" y="-384" type="curve" smooth="yes"></point>
      <point x="500" y="-384"></point>
      <point x="557" y="-365"></point>
      <point x="557" y="-300" type="curve" smooth="yes"></point>
      <point x="557" y="-230"></point>
      <point x="500" y="-214"></point>
      <point x="429" y="-214" type="curve" smooth="yes"></point>
      <point x="419" y="-214"></point>
      <point x="399" y="-215"></point>
      <point x="386" y="-217" type="curve"></point>
      <point x="348" y="-219" type="line"></point>
      <point x="387" y="4" type="line"></point>
      <point x="500" y="4" type="line"></point>
      <point x="480" y="-122" type="line"></point>
      <point x="490" y="-122" type="line"></point>
      <point x="612" y="-128"></point>
      <point x="725" y="-171"></point>
      <point x="725" y="-297" type="curve" smooth="yes"></point>
      <point x="725" y="-438"></point>
      <point x="585" y="-481"></point>
    </contour>
  </outline>
</glyph>
<glyph name="uni00B9" format="1">
  <advance width="742"></advance>
  <unicode hex="00B9"></unicode>
  <outline>
    <contour>
      <point x="336" y="1520" type="curve"></point>
      <point x="473" y="1520" type="line"></point>
      <point x="473" y="694" type="line"></point>
      <point x="602" y="694" type="line"></point>
      <point x="602" y="572" type="line"></point>
      <point x="170" y="572" type="line"></point>
      <point x="170" y="698" type="line"></point>
      <point x="319" y="698" type="line"></point>
      <point x="318" y="1376" type="line"></point>
      <point x="157" y="1298" type="line"></point>
      <point x="157" y="1424" type="line"></point>
      <point x="218" y="1454.67"></point>
      <point x="278" y="1486.67"></point>
    </contour>
  </outline>
</glyph>
<glyph name="ordmasculine" format="1">
  <advance width="1031"></advance>
  <unicode hex="00BA"></unicode>
  <outline>
    <contour>
      <point x="505" y="647" type="curve" smooth="yes"></point>
      <point x="258" y="647"></point>
      <point x="97" y="805"></point>
      <point x="97" y="1066" type="curve" smooth="yes"></point>
      <point x="97" y="1328"></point>
      <point x="258" y="1480"></point>
      <point x="505" y="1480" type="curve" smooth="yes"></point>
      <point x="757" y="1480"></point>
      <point x="909" y="1295"></point>
      <point x="909" y="1062" type="curve" smooth="yes"></point>
      <point x="909" y="798"></point>
      <point x="746" y="647"></point>
    </contour>
    <contour>
      <point x="505" y="773" type="curve" smooth="yes"></point>
      <point x="654" y="773"></point>
      <point x="747" y="896"></point>
      <point x="747" y="1061" type="curve" smooth="yes"></point>
      <point x="747" y="1231"></point>
      <point x="655" y="1354"></point>
      <point x="502" y="1354" type="curve" smooth="yes"></point>
      <point x="351" y="1354"></point>
      <point x="261" y="1231"></point>
      <point x="261" y="1065" type="curve" smooth="yes"></point>
      <point x="261" y="894"></point>
      <point x="349" y="773"></point>
    </contour>
  </outline>
</glyph>
<glyph name="guillemotright" format="1">
  <advance width="989"></advance>
  <unicode hex="00BB"></unicode>
  <outline>
    <contour>
      <point x="648" y="1174" type="line"></point>
      <point x="959" y="737" type="line"></point>
      <point x="643" y="301" type="line"></point>
      <point x="475" y="301" type="line"></point>
      <point x="757" y="737" type="line"></point>
      <point x="483" y="1174" type="line"></point>
    </contour>
    <contour>
      <point x="223" y="1174" type="line"></point>
      <point x="515" y="737" type="line"></point>
      <point x="218" y="301" type="line"></point>
      <point x="30" y="301" type="line"></point>
      <point x="335" y="737" type="line"></point>
      <point x="37" y="1174" type="line"></point>
    </contour>
  </outline>
</glyph>
<glyph name="onequarter" format="1">
  <advance width="1649"></advance>
  <unicode hex="00BC"></unicode>
  <outline>
    <contour>
      <point x="225" y="0" type="line"></point>
      <point x="1198" y="1520" type="line"></point>
      <point x="1356" y="1520" type="line"></point>
      <point x="387" y="0" type="line"></point>
    </contour>
    <contour>
      <point x="131" y="1520" type="curve"></point>
      <point x="268" y="1520" type="line"></point>
      <point x="268" y="694" type="line"></point>
      <point x="397" y="694" type="line"></point>
      <point x="397" y="572" type="line"></point>
      <point x="-34" y="572" type="line"></point>
      <point x="-34" y="698" type="line"></point>
      <point x="114" y="698" type="line"></point>
      <point x="113" y="1376" type="line"></point>
      <point x="-47" y="1298" type="line"></point>
      <point x="-47" y="1424" type="line"></point>
      <point x="13" y="1454.67"></point>
      <point x="73" y="1486.67"></point>
    </contour>
    <contour>
      <point x="1363" y="0" type="line"></point>
      <point x="1363" y="221" type="line"></point>
      <point x="963" y="221" type="line"></point>
      <point x="963" y="328" type="line"></point>
      <point x="1351" y="936" type="line"></point>
      <point x="1503" y="936" type="line"></point>
      <point x="1503" y="347" type="line"></point>
      <point x="1641" y="347" type="line"></point>
      <point x="1642" y="221" type="line"></point>
      <point x="1500" y="221" type="line"></point>
      <point x="1500" y="0" type="line"></point>
    </contour>
    <contour>
      <point x="1098" y="347" type="line"></point>
      <point x="1363" y="347" type="line"></point>
      <point x="1363" y="769" type="line"></point>
    </contour>
  </outline>
</glyph>
<glyph name="onehalf" format="1">
  <advance width="1732"></advance>
  <unicode hex="00BD"></unicode>
  <outline>
    <contour>
      <point x="219" y="0" type="line"></point>
      <point x="1192" y="1520" type="line"></point>
      <point x="1350" y="1520" type="line"></point>
      <point x="381" y="0" type="line"></point>
    </contour>
    <contour>
      <point x="125" y="1520" type="curve"></point>
      <point x="262" y="1520" type="line"></point>
      <point x="262" y="694" type="line"></point>
      <point x="391" y="694" type="line"></point>
      <point x="391" y="572" type="line"></point>
      <point x="-40" y="572" type="line"></point>
      <point x="-40" y="698" type="line"></point>
      <point x="108" y="698" type="line"></point>
      <point x="107" y="1376" type="line"></point>
      <point x="-53" y="1298" type="line"></point>
      <point x="-53" y="1424" type="line"></point>
      <point x="8" y="1454"></point>
      <point x="68" y="1486"></point>
    </contour>
    <contour>
      <point x="1150" y="0" type="line"></point>
      <point x="1150" y="129" type="line"></point>
      <point x="1508" y="496" type="line" smooth="yes"></point>
      <point x="1565" y="554"></point>
      <point x="1589" y="612"></point>
      <point x="1589" y="661" type="curve" smooth="yes"></point>
      <point x="1589" y="743"></point>
      <point x="1521" y="802"></point>
      <point x="1433" y="802" type="curve" smooth="yes"></point>
      <point x="1345" y="802"></point>
      <point x="1263" y="770"></point>
      <point x="1197" y="670" type="curve"></point>
      <point x="1106" y="762" type="line"></point>
      <point x="1187" y="880"></point>
      <point x="1297" y="936"></point>
      <point x="1432" y="936" type="curve" smooth="yes"></point>
      <point x="1615" y="936"></point>
      <point x="1735" y="821"></point>
      <point x="1735" y="674" type="curve" smooth="yes"></point>
      <point x="1735" y="590"></point>
      <point x="1696" y="496"></point>
      <point x="1607" y="406" type="curve" smooth="yes"></point>
      <point x="1342" y="138" type="line"></point>
      <point x="1728" y="138" type="line"></point>
      <point x="1728" y="0" type="line"></point>
    </contour>
  </outline>
</glyph>
<glyph name="threequarters" format="1">
  <advance width="1608"></advance>
  <unicode hex="00BE"></unicode>
  <outline>
    <contour>
      <point x="205" y="0" type="line"></point>
      <point x="1178" y="1520" type="line"></point>
      <point x="1336" y="1520" type="line"></point>
      <point x="367" y="0" type="line"></point>
    </contour>
    <contour>
      <point x="1343" y="0" type="line"></point>
      <point x="1343" y="221" type="line"></point>
      <point x="943" y="221" type="line"></point>
      <point x="943" y="328" type="line"></point>
      <point x="1331" y="936" type="line"></point>
      <point x="1483" y="936" type="line"></point>
      <point x="1483" y="347" type="line"></point>
      <point x="1621" y="347" type="line"></point>
      <point x="1622" y="221" type="line"></point>
      <point x="1480" y="221" type="line"></point>
      <point x="1480" y="0" type="line"></point>
    </contour>
    <contour>
      <point x="1078" y="347" type="line"></point>
      <point x="1343" y="347" type="line"></point>
      <point x="1343" y="769" type="line"></point>
    </contour>
    <contour>
      <point x="369" y="1266" type="curve" smooth="yes"></point>
      <point x="369" y="1162"></point>
      <point x="287" y="1089"></point>
      <point x="195" y="1070" type="curve"></point>
      <point x="315" y="1041"></point>
      <point x="387" y="957"></point>
      <point x="390" y="837" type="curve"></point>
      <point x="390" y="826" type="line" smooth="yes"></point>
      <point x="390" y="634"></point>
      <point x="243" y="550"></point>
      <point x="84" y="550" type="curve" smooth="yes"></point>
      <point x="-13" y="550"></point>
      <point x="-115" y="582"></point>
      <point x="-191" y="639" type="curve"></point>
      <point x="-138" y="741" type="line"></point>
      <point x="-79" y="697"></point>
      <point x="3" y="667"></point>
      <point x="78" y="667" type="curve" smooth="yes"></point>
      <point x="172" y="667"></point>
      <point x="253" y="714"></point>
      <point x="253" y="841" type="curve" smooth="yes"></point>
      <point x="253" y="972"></point>
      <point x="145" y="1008"></point>
      <point x="26" y="1008" type="curve" smooth="yes"></point>
      <point x="-33" y="1008" type="line"></point>
      <point x="-33" y="1127" type="line"></point>
      <point x="18" y="1127" type="line" smooth="yes"></point>
      <point x="125" y="1127"></point>
      <point x="227" y="1145"></point>
      <point x="227" y="1263" type="curve" smooth="yes"></point>
      <point x="227" y="1368"></point>
      <point x="159" y="1404"></point>
      <point x="79" y="1404" type="curve" smooth="yes"></point>
      <point x="-5" y="1404"></point>
      <point x="-103" y="1363"></point>
      <point x="-143" y="1322" type="curve"></point>
      <point x="-198" y="1419" type="line"></point>
      <point x="-137" y="1477"></point>
      <point x="-20" y="1519"></point>
      <point x="92" y="1519" type="curve" smooth="yes"></point>
      <point x="235" y="1519"></point>
      <point x="369" y="1452"></point>
    </contour>
  </outline>
</glyph>
<glyph name="questiondown" format="1">
  <advance width="866"></advance>
  <unicode hex="00BF"></unicode>
  <outline>
    <contour>
      <point x="584" y="1216" type="curve" smooth="yes"></point>
      <point x="680" y="1216"></point>
      <point x="749" y="1150"></point>
      <point x="749" y="1055" type="curve" smooth="yes"></point>
      <point x="749" y="963"></point>
      <point x="680" y="898"></point>
      <point x="584" y="898" type="curve" smooth="yes"></point>
      <point x="488" y="898"></point>
      <point x="419" y="963"></point>
      <point x="419" y="1058" type="curve" smooth="yes"></point>
      <point x="419" y="1152"></point>
      <point x="488" y="1216"></point>
    </contour>
    <contour>
      <point x="644" y="781" type="line"></point>
      <point x="644" y="317"></point>
      <point x="380" y="241"></point>
      <point x="380" y="95" type="curve" smooth="yes"></point>
      <point x="380" y="-8"></point>
      <point x="460" y="-48"></point>
      <point x="554" y="-48" type="curve" smooth="yes"></point>
      <point x="620" y="-48"></point>
      <point x="711" y="-29"></point>
      <point x="785" y="-1" type="curve"></point>
      <point x="816" y="-212" type="line"></point>
      <point x="713" y="-255"></point>
      <point x="600" y="-276"></point>
      <point x="500" y="-276" type="curve" smooth="yes"></point>
      <point x="287" y="-276"></point>
      <point x="103" y="-173"></point>
      <point x="103" y="67" type="curve" smooth="yes"></point>
      <point x="103" y="423"></point>
      <point x="473" y="428"></point>
      <point x="530" y="781" type="curve"></point>
    </contour>
  </outline>
</glyph>
<glyph name="Agrave" format="1">
  <advance width="1237"></advance>
  <unicode hex="00C0"></unicode>
  <outline>
    <contour>
      <point x="540" y="1624" type="line"></point>
      <point x="210" y="1942" type="line"></point>
      <point x="483" y="1942" type="line"></point>
      <point x="729" y="1624" type="line"></point>
    </contour>
    <contour>
      <point x="-29" y="0" type="line"></point>
      <point x="508" y="1560" type="line"></point>
      <point x="748" y="1560" type="line"></point>
      <point x="1277" y="0" type="line"></point>
      <point x="992" y="0" type="line"></point>
      <point x="883" y="355" type="line"></point>
      <point x="357" y="355" type="line"></point>
      <point x="244" y="0" type="line"></point>
    </contour>
    <contour>
      <point x="424" y="553" type="curve"></point>
      <point x="818" y="553" type="line"></point>
      <point x="754" y="774"></point>
      <point x="688" y="992"></point>
      <point x="622" y="1211" type="curve"></point>
      <point x="556" y="992"></point>
      <point x="490" y="772"></point>
    </contour>
  </outline>
</glyph>
<glyph name="Acircumflex" format="1">
  <advance width="1237"></advance>
  <unicode hex="00C2"></unicode>
  <outline>
    <contour>
      <point x="574" y="1931" type="line"></point>
      <point x="740" y="1931" type="line"></point>
      <point x="1028" y="1550" type="line"></point>
      <point x="802" y="1550" type="line"></point>
      <point x="657" y="1734" type="line"></point>
      <point x="513" y="1560" type="line"></point>
      <point x="748" y="1560" type="line"></point>
      <point x="1277" y="0" type="line"></point>
      <point x="992" y="0" type="line"></point>
      <point x="883" y="355" type="line"></point>
      <point x="357" y="355" type="line"></point>
      <point x="244" y="0" type="line"></point>
      <point x="-29" y="0" type="line"></point>
      <point x="504" y="1550" type="line"></point>
      <point x="287" y="1550" type="line"></point>
    </contour>
    <contour>
      <point x="424" y="553" type="curve"></point>
      <point x="818" y="553" type="line"></point>
      <point x="754" y="774"></point>
      <point x="688" y="992"></point>
      <point x="622" y="1211" type="curve"></point>
      <point x="556" y="992"></point>
      <point x="490" y="772"></point>
    </contour>
  </outline>
</glyph>
<glyph name="Atilde" format="1">
  <advance width="1237"></advance>
  <unicode hex="00C3"></unicode>
  <outline>
    <contour>
      <point x="297" y="1618" type="line"></point>
      <point x="308" y="1754"></point>
      <point x="385" y="1865"></point>
      <point x="530" y="1865" type="curve" smooth="yes"></point>
      <point x="612" y="1865"></point>
      <point x="672" y="1822"></point>
      <point x="733" y="1798" type="curve" smooth="yes"></point>
      <point x="754" y="1789"></point>
      <point x="777" y="1785"></point>
      <point x="798" y="1785" type="curve" smooth="yes"></point>
      <point x="860" y="1785"></point>
      <point x="892" y="1831"></point>
      <point x="900" y="1891" type="curve"></point>
      <point x="1027" y="1891" type="line"></point>
      <point x="1012" y="1758"></point>
      <point x="943" y="1638"></point>
      <point x="798" y="1638" type="curve" smooth="yes"></point>
      <point x="694" y="1638"></point>
      <point x="630" y="1718"></point>
      <point x="527" y="1718" type="curve" smooth="yes"></point>
      <point x="463" y="1718"></point>
      <point x="429" y="1684"></point>
      <point x="420" y="1618" type="curve"></point>
    </contour>
    <contour>
      <point x="-29" y="0" type="line"></point>
      <point x="508" y="1560" type="line"></point>
      <point x="748" y="1560" type="line"></point>
      <point x="1277" y="0" type="line"></point>
      <point x="992" y="0" type="line"></point>
      <point x="883" y="355" type="line"></point>
      <point x="357" y="355" type="line"></point>
      <point x="244" y="0" type="line"></point>
    </contour>
    <contour>
      <point x="424" y="553" type="curve"></point>
      <point x="818" y="553" type="line"></point>
      <point x="754" y="774"></point>
      <point x="688" y="992"></point>
      <point x="622" y="1211" type="curve"></point>
      <point x="556" y="992"></point>
      <point x="490" y="772"></point>
    </contour>
  </outline>
</glyph>
<glyph name="Adieresis" format="1">
  <advance width="1237"></advance>
  <unicode hex="00C4"></unicode>
  <outline>
    <contour>
      <point x="264" y="1734" type="curve" smooth="yes"></point>
      <point x="264" y="1775" type="line" smooth="yes"></point>
      <point x="264" y="1847"></point>
      <point x="323" y="1906"></point>
      <point x="395" y="1906" type="curve" smooth="yes"></point>
      <point x="467" y="1906"></point>
      <point x="525" y="1847"></point>
      <point x="525" y="1775" type="curve" smooth="yes"></point>
      <point x="525" y="1734" type="line" smooth="yes"></point>
      <point x="525" y="1662"></point>
      <point x="467" y="1604"></point>
      <point x="395" y="1604" type="curve" smooth="yes"></point>
      <point x="323" y="1604"></point>
      <point x="264" y="1662"></point>
    </contour>
    <contour>
      <point x="770" y="1734" type="curve" smooth="yes"></point>
      <point x="770" y="1775" type="line" smooth="yes"></point>
      <point x="770" y="1847"></point>
      <point x="829" y="1906"></point>
      <point x="901" y="1906" type="curve" smooth="yes"></point>
      <point x="973" y="1906"></point>
      <point x="1031" y="1847"></point>
      <point x="1031" y="1775" type="curve" smooth="yes"></point>
      <point x="1031" y="1734" type="line" smooth="yes"></point>
      <point x="1031" y="1662"></point>
      <point x="973" y="1604"></point>
      <point x="901" y="1604" type="curve" smooth="yes"></point>
      <point x="829" y="1604"></point>
      <point x="770" y="1662"></point>
    </contour>
    <contour>
      <point x="-29" y="0" type="line"></point>
      <point x="508" y="1560" type="line"></point>
      <point x="748" y="1560" type="line"></point>
      <point x="1277" y="0" type="line"></point>
      <point x="992" y="0" type="line"></point>
      <point x="883" y="355" type="line"></point>
      <point x="357" y="355" type="line"></point>
      <point x="244" y="0" type="line"></point>
    </contour>
    <contour>
      <point x="424" y="553" type="curve"></point>
      <point x="818" y="553" type="line"></point>
      <point x="754" y="774"></point>
      <point x="688" y="992"></point>
      <point x="622" y="1211" type="curve"></point>
      <point x="556" y="992"></point>
      <point x="490" y="772"></point>
    </contour>
  </outline>
</glyph>
<glyph name="Aring" format="1">
  <advance width="1237"></advance>
  <unicode hex="00C5"></unicode>
  <outline>
    <contour>
      <point x="645" y="1651" type="curve" smooth="yes"></point>
      <point x="716" y="1651"></point>
      <point x="776" y="1704"></point>
      <point x="776" y="1775" type="curve" smooth="yes"></point>
      <point x="776" y="1847"></point>
      <point x="718" y="1898"></point>
      <point x="645" y="1898" type="curve" smooth="yes"></point>
      <point x="574" y="1898"></point>
      <point x="516" y="1846"></point>
      <point x="516" y="1775" type="curve" smooth="yes"></point>
      <point x="516" y="1699"></point>
      <point x="569" y="1651"></point>
    </contour>
    <contour>
      <point x="-29" y="0" type="line"></point>
      <point x="508" y="1560" type="line"></point>
      <point x="573" y="1560" type="line"></point>
      <point x="460" y="1588.95"></point>
      <point x="400" y="1683.06"></point>
      <point x="400" y="1773" type="curve" smooth="yes"></point>
      <point x="400" y="1930"></point>
      <point x="541" y="1998"></point>
      <point x="647" y="1998" type="curve" smooth="yes"></point>
      <point x="805" y="1998"></point>
      <point x="893" y="1883"></point>
      <point x="893" y="1775" type="curve" smooth="yes"></point>
      <point x="893" y="1652.66"></point>
      <point x="802" y="1583.34"></point>
      <point x="714" y="1560" type="curve"></point>
      <point x="748" y="1560" type="line"></point>
      <point x="1277" y="0" type="line"></point>
      <point x="992" y="0" type="line"></point>
      <point x="883" y="355" type="line"></point>
      <point x="357" y="355" type="line"></point>
      <point x="244" y="0" type="line"></point>
    </contour>
    <contour>
      <point x="424" y="553" type="curve"></point>
      <point x="818" y="553" type="line"></point>
      <point x="754" y="774"></point>
      <point x="688" y="992"></point>
      <point x="622" y="1211" type="curve"></point>
      <point x="556" y="992"></point>
      <point x="490" y="772"></point>
    </contour>
  </outline>
</glyph>
<glyph name="AE" format="1">
  <advance width="1690"></advance>
  <unicode hex="00C6"></unicode>
  <outline>
    <contour>
      <point x="-132" y="0" type="line"></point>
      <point x="700" y="1456" type="line"></point>
      <point x="1753" y="1456" type="line"></point>
      <point x="1753" y="1262" type="line"></point>
      <point x="1107" y="1262" type="line"></point>
      <point x="1145" y="821" type="line"></point>
      <point x="1712" y="821" type="line"></point>
      <point x="1712" y="648" type="line"></point>
      <point x="1167" y="648" type="line"></point>
      <point x="1207" y="184" type="line"></point>
      <point x="1776" y="184" type="line"></point>
      <point x="1776" y="0" type="line"></point>
      <point x="968" y="0" type="line"></point>
      <point x="937" y="378" type="line"></point>
      <point x="368" y="378" type="line"></point>
      <point x="155" y="0" type="line"></point>
    </contour>
    <contour>
      <point x="448" y="562" type="line"></point>
      <point x="918" y="562" type="line"></point>
      <point x="858" y="1262" type="line"></point>
      <point x="844" y="1262" type="line"></point>
    </contour>
  </outline>
</glyph>
<glyph name="Ccedilla" format="1">
  <advance width="1360"></advance>
  <unicode hex="00C7"></unicode>
  <outline>
    <contour>
      <point x="756" y="-481" type="curve" smooth="yes"></point>
      <point x="685" y="-481"></point>
      <point x="614" y="-469"></point>
      <point x="550" y="-456" type="curve"></point>
      <point x="560" y="-356" type="line"></point>
      <point x="618" y="-370"></point>
      <point x="674" y="-384"></point>
      <point x="737" y="-384" type="curve" smooth="yes"></point>
      <point x="814" y="-384"></point>
      <point x="871" y="-365"></point>
      <point x="871" y="-300" type="curve" smooth="yes"></point>
      <point x="871" y="-230"></point>
      <point x="814" y="-214"></point>
      <point x="743" y="-214" type="curve" smooth="yes"></point>
      <point x="733" y="-214"></point>
      <point x="713" y="-215"></point>
      <point x="700" y="-217" type="curve"></point>
      <point x="662" y="-219" type="line"></point>
      <point x="696" y="-19.8622" type="line"></point>
      <point x="286" y="19.9015"></point>
      <point x="48" y="342.5"></point>
      <point x="48" y="785" type="curve" smooth="yes"></point>
      <point x="48" y="1312"></point>
      <point x="420" y="1584"></point>
      <point x="808" y="1584" type="curve" smooth="yes"></point>
      <point x="972" y="1584"></point>
      <point x="1140" y="1535"></point>
      <point x="1283" y="1436" type="curve"></point>
      <point x="1191" y="1234" type="line"></point>
      <point x="1083" y="1324"></point>
      <point x="946" y="1372"></point>
      <point x="812" y="1372" type="curve" smooth="yes"></point>
      <point x="553" y="1372"></point>
      <point x="307" y="1192"></point>
      <point x="307" y="784" type="curve" smooth="yes"></point>
      <point x="307" y="371"></point>
      <point x="534" y="186"></point>
      <point x="800" y="186" type="curve" smooth="yes"></point>
      <point x="937" y="186"></point>
      <point x="1085" y="235"></point>
      <point x="1217" y="328" type="curve"></point>
      <point x="1300" y="135" type="line"></point>
      <point x="1187" y="42.9148"></point>
      <point x="975" y="-18.1644"></point>
      <point x="809" y="-23.6472" type="curve"></point>
      <point x="794" y="-122" type="line"></point>
      <point x="804" y="-122" type="line"></point>
      <point x="926" y="-128"></point>
      <point x="1039" y="-171"></point>
      <point x="1039" y="-297" type="curve" smooth="yes"></point>
      <point x="1039" y="-438"></point>
      <point x="899" y="-481"></point>
    </contour>
  </outline>
</glyph>
<glyph name="Egrave" format="1">
  <advance width="1072"></advance>
  <unicode hex="00C8"></unicode>
  <outline>
    <contour>
      <point x="475" y="1704" type="line"></point>
      <point x="145" y="2022" type="line"></point>
      <point x="418" y="2022" type="line"></point>
      <point x="664" y="1704" type="line"></point>
    </contour>
    <contour>
      <point x="103" y="0" type="line"></point>
      <point x="103" y="1560" type="line"></point>
      <point x="961" y="1560" type="line"></point>
      <point x="961" y="1360" type="line"></point>
      <point x="353" y="1360" type="line"></point>
      <point x="353" y="906" type="line"></point>
      <point x="919" y="906" type="line"></point>
      <point x="919" y="713" type="line"></point>
      <point x="353" y="713" type="line"></point>
      <point x="353" y="200" type="line"></point>
      <point x="981" y="200" type="line"></point>
      <point x="981" y="0" type="line"></point>
    </contour>
  </outline>
</glyph>
<glyph name="Eacute" format="1">
  <advance width="1113"></advance>
  <unicode hex="00C9"></unicode>
  <outline>
    <contour>
      <point x="477" y="1646" type="line"></point>
      <point x="743" y="2022" type="line"></point>
      <point x="1062" y="2022" type="line"></point>
      <point x="700" y="1646" type="line"></point>
    </contour>
    <contour>
      <point x="103" y="0" type="line"></point>
      <point x="103" y="1560" type="line"></point>
      <point x="961" y="1560" type="line"></point>
      <point x="961" y="1360" type="line"></point>
      <point x="353" y="1360" type="line"></point>
      <point x="353" y="906" type="line"></point>
      <point x="919" y="906" type="line"></point>
      <point x="919" y="713" type="line"></point>
      <point x="353" y="713" type="line"></point>
      <point x="353" y="200" type="line"></point>
      <point x="981" y="200" type="line"></point>
      <point x="981" y="0" type="line"></point>
    </contour>
  </outline>
</glyph>
<glyph name="Ecircumflex" format="1">
  <advance width="1072"></advance>
  <unicode hex="00CA"></unicode>
  <outline>
    <contour>
      <point x="509" y="2011" type="line"></point>
      <point x="675" y="2011" type="line"></point>
      <point x="963" y="1630" type="line"></point>
      <point x="737" y="1630" type="line"></point>
      <point x="592" y="1814" type="line"></point>
      <point x="440" y="1630" type="line"></point>
      <point x="222" y="1630" type="line"></point>
    </contour>
    <contour>
      <point x="103" y="0" type="line"></point>
      <point x="103" y="1560" type="line"></point>
      <point x="961" y="1560" type="line"></point>
      <point x="961" y="1360" type="line"></point>
      <point x="353" y="1360" type="line"></point>
      <point x="353" y="906" type="line"></point>
      <point x="919" y="906" type="line"></point>
      <point x="919" y="713" type="line"></point>
      <point x="353" y="713" type="line"></point>
      <point x="353" y="200" type="line"></point>
      <point x="981" y="200" type="line"></point>
      <point x="981" y="0" type="line"></point>
    </contour>
  </outline>
</glyph>
<glyph name="Edieresis" format="1">
  <advance width="1072"></advance>
  <unicode hex="00CB"></unicode>
  <outline>
    <contour>
      <point x="199" y="1814" type="curve" smooth="yes"></point>
      <point x="199" y="1855" type="line" smooth="yes"></point>
      <point x="199" y="1927"></point>
      <point x="258" y="1986"></point>
      <point x="330" y="1986" type="curve" smooth="yes"></point>
      <point x="402" y="1986"></point>
      <point x="460" y="1927"></point>
      <point x="460" y="1855" type="curve" smooth="yes"></point>
      <point x="460" y="1814" type="line" smooth="yes"></point>
      <point x="460" y="1742"></point>
      <point x="402" y="1684"></point>
      <point x="330" y="1684" type="curve" smooth="yes"></point>
      <point x="258" y="1684"></point>
      <point x="199" y="1742"></point>
    </contour>
    <contour>
      <point x="705" y="1814" type="curve" smooth="yes"></point>
      <point x="705" y="1855" type="line" smooth="yes"></point>
      <point x="705" y="1927"></point>
      <point x="764" y="1986"></point>
      <point x="836" y="1986" type="curve" smooth="yes"></point>
      <point x="908" y="1986"></point>
      <point x="966" y="1927"></point>
      <point x="966" y="1855" type="curve" smooth="yes"></point>
      <point x="966" y="1814" type="line" smooth="yes"></point>
      <point x="966" y="1742"></point>
      <point x="908" y="1684"></point>
      <point x="836" y="1684" type="curve" smooth="yes"></point>
      <point x="764" y="1684"></point>
      <point x="705" y="1742"></point>
    </contour>
    <contour>
      <point x="103" y="0" type="line"></point>
      <point x="103" y="1560" type="line"></point>
      <point x="961" y="1560" type="line"></point>
      <point x="961" y="1360" type="line"></point>
      <point x="353" y="1360" type="line"></point>
      <point x="353" y="906" type="line"></point>
      <point x="919" y="906" type="line"></point>
      <point x="919" y="713" type="line"></point>
      <point x="353" y="713" type="line"></point>
      <point x="353" y="200" type="line"></point>
      <point x="981" y="200" type="line"></point>
      <point x="981" y="0" type="line"></point>
    </contour>
  </outline>
</glyph>
<glyph name="Igrave" format="1">
  <advance width="866"></advance>
  <unicode hex="00CC"></unicode>
  <outline>
    <contour>
      <point x="342" y="1704" type="line"></point>
      <point x="12" y="2022" type="line"></point>
      <point x="285" y="2022" type="line"></point>
      <point x="531" y="1704" type="line"></point>
    </contour>
    <contour>
      <point x="813" y="0" type="line"></point>
      <point x="215" y="0" type="line"></point>
      <point x="215" y="182" type="line"></point>
      <point x="389" y="182" type="line"></point>
      <point x="389" y="1378" type="line"></point>
      <point x="215" y="1378" type="line"></point>
      <point x="215" y="1560" type="line"></point>
      <point x="813" y="1560" type="line"></point>
      <point x="813" y="1378" type="line"></point>
      <point x="639" y="1378" type="line"></point>
      <point x="639" y="182" type="line"></point>
      <point x="813" y="182" type="line"></point>
    </contour>
  </outline>
</glyph>
<glyph name="Iacute" format="1">
  <advance width="824"></advance>
  <unicode hex="00CD"></unicode>
  <outline>
    <contour>
      <point x="184" y="1646" type="line"></point>
      <point x="450" y="2022" type="line"></point>
      <point x="769" y="2022" type="line"></point>
      <point x="407" y="1646" type="line"></point>
    </contour>
    <contour>
      <point x="653" y="0" type="line"></point>
      <point x="55" y="0" type="line"></point>
      <point x="55" y="182" type="line"></point>
      <point x="229" y="182" type="line"></point>
      <point x="229" y="1378" type="line"></point>
      <point x="55" y="1378" type="line"></point>
      <point x="55" y="1560" type="line"></point>
      <point x="653" y="1560" type="line"></point>
      <point x="653" y="1378" type="line"></point>
      <point x="479" y="1378" type="line"></point>
      <point x="479" y="182" type="line"></point>
      <point x="653" y="182" type="line"></point>
    </contour>
  </outline>
</glyph>
<glyph name="Icircumflex" format="1">
  <advance width="866"></advance>
  <unicode hex="00CE"></unicode>
  <outline>
    <contour>
      <point x="348" y="2011" type="line"></point>
      <point x="514" y="2011" type="line"></point>
      <point x="802" y="1630" type="line"></point>
      <point x="576" y="1630" type="line"></point>
      <point x="431" y="1814" type="line"></point>
      <point x="279" y="1630" type="line"></point>
      <point x="61" y="1630" type="line"></point>
    </contour>
    <contour>
      <point x="785" y="0" type="line"></point>
      <point x="187" y="0" type="line"></point>
      <point x="187" y="182" type="line"></point>
      <point x="361" y="182" type="line"></point>
      <point x="361" y="1378" type="line"></point>
      <point x="187" y="1378" type="line"></point>
      <point x="187" y="1560" type="line"></point>
      <point x="785" y="1560" type="line"></point>
      <point x="785" y="1378" type="line"></point>
      <point x="611" y="1378" type="line"></point>
      <point x="611" y="182" type="line"></point>
      <point x="785" y="182" type="line"></point>
    </contour>
  </outline>
</glyph>
<glyph name="Idieresis" format="1">
  <advance width="866"></advance>
  <unicode hex="00CF"></unicode>
  <outline>
    <contour>
      <point x="42" y="1814" type="curve" smooth="yes"></point>
      <point x="42" y="1855" type="line" smooth="yes"></point>
      <point x="42" y="1927"></point>
      <point x="101" y="1986"></point>
      <point x="173" y="1986" type="curve" smooth="yes"></point>
      <point x="245" y="1986"></point>
      <point x="303" y="1927"></point>
      <point x="303" y="1855" type="curve" smooth="yes"></point>
      <point x="303" y="1814" type="line" smooth="yes"></point>
      <point x="303" y="1742"></point>
      <point x="245" y="1684"></point>
      <point x="173" y="1684" type="curve" smooth="yes"></point>
      <point x="101" y="1684"></point>
      <point x="42" y="1742"></point>
    </contour>
    <contour>
      <point x="548" y="1814" type="curve" smooth="yes"></point>
      <point x="548" y="1855" type="line" smooth="yes"></point>
      <point x="548" y="1927"></point>
      <point x="607" y="1986"></point>
      <point x="679" y="1986" type="curve" smooth="yes"></point>
      <point x="751" y="1986"></point>
      <point x="809" y="1927"></point>
      <point x="809" y="1855" type="curve" smooth="yes"></point>
      <point x="809" y="1814" type="line" smooth="yes"></point>
      <point x="809" y="1742"></point>
      <point x="751" y="1684"></point>
      <point x="679" y="1684" type="curve" smooth="yes"></point>
      <point x="607" y="1684"></point>
      <point x="548" y="1742"></point>
    </contour>
    <contour>
      <point x="789" y="0" type="line"></point>
      <point x="191" y="0" type="line"></point>
      <point x="191" y="182" type="line"></point>
      <point x="365" y="182" type="line"></point>
      <point x="365" y="1378" type="line"></point>
      <point x="191" y="1378" type="line"></point>
      <point x="191" y="1560" type="line"></point>
      <point x="789" y="1560" type="line"></point>
      <point x="789" y="1378" type="line"></point>
      <point x="615" y="1378" type="line"></point>
      <point x="615" y="182" type="line"></point>
      <point x="789" y="182" type="line"></point>
    </contour>
  </outline>
</glyph>
<glyph name="Eth" format="1">
  <advance width="1402"></advance>
  <unicode hex="00D0"></unicode>
  <outline>
    <contour>
      <point x="-17" y="645" type="line"></point>
      <point x="-17" y="842" type="line"></point>
      <point x="109" y="842" type="line"></point>
      <point x="109" y="1560" type="line"></point>
      <point x="448" y="1560" type="line" smooth="yes"></point>
      <point x="1042" y="1560"></point>
      <point x="1353" y="1290"></point>
      <point x="1353" y="792" type="curve" smooth="yes"></point>
      <point x="1353" y="275"></point>
      <point x="1071" y="0"></point>
      <point x="505" y="0" type="curve" smooth="yes"></point>
      <point x="109" y="0" type="line"></point>
      <point x="109" y="645" type="line"></point>
    </contour>
    <contour>
      <point x="359" y="200" type="line"></point>
      <point x="521" y="200" type="line" smooth="yes"></point>
      <point x="939" y="200"></point>
      <point x="1087" y="422"></point>
      <point x="1087" y="789" type="curve" smooth="yes"></point>
      <point x="1087" y="1142"></point>
      <point x="927" y="1360"></point>
      <point x="481" y="1360" type="curve" smooth="yes"></point>
      <point x="359" y="1360" type="line"></point>
      <point x="359" y="842" type="line"></point>
      <point x="761" y="842" type="line"></point>
      <point x="761" y="645" type="line"></point>
      <point x="359" y="645" type="line"></point>
    </contour>
  </outline>
</glyph>
<glyph name="Ntilde" format="1">
  <advance width="1443"></advance>
  <unicode hex="00D1"></unicode>
  <outline>
    <contour>
      <point x="403" y="1698" type="line"></point>
      <point x="414" y="1834"></point>
      <point x="491" y="1945"></point>
      <point x="636" y="1945" type="curve" smooth="yes"></point>
      <point x="718" y="1945"></point>
      <point x="778" y="1902"></point>
      <point x="839" y="1878" type="curve" smooth="yes"></point>
      <point x="860" y="1869"></point>
      <point x="883" y="1865"></point>
      <point x="904" y="1865" type="curve" smooth="yes"></point>
      <point x="966" y="1865"></point>
      <point x="998" y="1911"></point>
      <point x="1006" y="1971" type="curve"></point>
      <point x="1133" y="1971" type="line"></point>
      <point x="1118" y="1838"></point>
      <point x="1049" y="1718"></point>
      <point x="904" y="1718" type="curve" smooth="yes"></point>
      <point x="800" y="1718"></point>
      <point x="736" y="1798"></point>
      <point x="633" y="1798" type="curve" smooth="yes"></point>
      <point x="569" y="1798"></point>
      <point x="535" y="1764"></point>
      <point x="526" y="1698" type="curve"></point>
    </contour>
    <contour>
      <point x="121" y="0" type="line"></point>
      <point x="121" y="1560" type="line"></point>
      <point x="382" y="1560" type="line"></point>
      <point x="632" y="1153"></point>
      <point x="890" y="753"></point>
      <point x="1134" y="340" type="curve"></point>
      <point x="1134" y="1560" type="line"></point>
      <point x="1354" y="1560" type="line"></point>
      <point x="1354" y="0" type="line"></point>
      <point x="1089" y="0" type="line"></point>
      <point x="840" y="406"></point>
      <point x="587" y="808"></point>
      <point x="341" y="1217" type="curve"></point>
      <point x="341" y="0" type="line"></point>
    </contour>
  </outline>
</glyph>
<glyph name="Ograve" format="1">
  <advance width="1525"></advance>
  <unicode hex="00D2"></unicode>
  <outline>
    <contour>
      <point x="610" y="1704" type="line"></point>
      <point x="280" y="2022" type="line"></point>
      <point x="553" y="2022" type="line"></point>
      <point x="799" y="1704" type="line"></point>
    </contour>
    <contour>
      <point x="760" y="186" type="curve" smooth="yes"></point>
      <point x="988" y="186"></point>
      <point x="1226" y="373"></point>
      <point x="1225" y="778" type="curve"></point>
      <point x="1225" y="1188"></point>
      <point x="988" y="1377"></point>
      <point x="760" y="1377" type="curve" smooth="yes"></point>
      <point x="532" y="1377"></point>
      <point x="301" y="1188"></point>
      <point x="301" y="778" type="curve" smooth="yes"></point>
      <point x="301" y="373"></point>
      <point x="532" y="186"></point>
    </contour>
    <contour>
      <point x="760" y="-24" type="curve" smooth="yes"></point>
      <point x="333" y="-24"></point>
      <point x="42" y="307"></point>
      <point x="42" y="780" type="curve" smooth="yes"></point>
      <point x="42" y="1248"></point>
      <point x="331" y="1584"></point>
      <point x="760" y="1584" type="curve" smooth="yes"></point>
      <point x="1193" y="1584"></point>
      <point x="1484" y="1248"></point>
      <point x="1484" y="780" type="curve" smooth="yes"></point>
      <point x="1484" y="307"></point>
      <point x="1191" y="-24"></point>
    </contour>
  </outline>
</glyph>
<glyph name="Oacute" format="1">
  <advance width="1683"></advance>
  <unicode hex="00D3"></unicode>
  <outline>
    <contour>
      <point x="681" y="1646" type="line"></point>
      <point x="947" y="2022" type="line"></point>
      <point x="1266" y="2022" type="line"></point>
      <point x="904" y="1646" type="line"></point>
    </contour>
    <contour>
      <point x="829" y="186" type="curve" smooth="yes"></point>
      <point x="1057" y="186"></point>
      <point x="1295" y="373"></point>
      <point x="1294" y="778" type="curve"></point>
      <point x="1294" y="1188"></point>
      <point x="1057" y="1377"></point>
      <point x="829" y="1377" type="curve" smooth="yes"></point>
      <point x="601" y="1377"></point>
      <point x="370" y="1188"></point>
      <point x="370" y="778" type="curve" smooth="yes"></point>
      <point x="370" y="373"></point>
      <point x="601" y="186"></point>
    </contour>
    <contour>
      <point x="829" y="-24" type="curve" smooth="yes"></point>
      <point x="402" y="-24"></point>
      <point x="111" y="307"></point>
      <point x="111" y="780" type="curve" smooth="yes"></point>
      <point x="111" y="1248"></point>
      <point x="400" y="1584"></point>
      <point x="829" y="1584" type="curve" smooth="yes"></point>
      <point x="1262" y="1584"></point>
      <point x="1553" y="1248"></point>
      <point x="1553" y="780" type="curve" smooth="yes"></point>
      <point x="1553" y="307"></point>
      <point x="1260" y="-24"></point>
    </contour>
  </outline>
</glyph>
<glyph name="Ocircumflex" format="1">
  <advance width="1525"></advance>
  <unicode hex="00D4"></unicode>
  <outline>
    <contour>
      <point x="644" y="2011" type="line"></point>
      <point x="810" y="2011" type="line"></point>
      <point x="1098" y="1630" type="line"></point>
      <point x="872" y="1630" type="line"></point>
      <point x="727" y="1814" type="line"></point>
      <point x="575" y="1630" type="line"></point>
      <point x="357" y="1630" type="line"></point>
    </contour>
    <contour>
      <point x="760" y="186" type="curve" smooth="yes"></point>
      <point x="988" y="186"></point>
      <point x="1226" y="373"></point>
      <point x="1225" y="778" type="curve"></point>
      <point x="1225" y="1188"></point>
      <point x="988" y="1377"></point>
      <point x="760" y="1377" type="curve" smooth="yes"></point>
      <point x="532" y="1377"></point>
      <point x="301" y="1188"></point>
      <point x="301" y="778" type="curve" smooth="yes"></point>
      <point x="301" y="373"></point>
      <point x="532" y="186"></point>
    </contour>
    <contour>
      <point x="760" y="-24" type="curve" smooth="yes"></point>
      <point x="333" y="-24"></point>
      <point x="42" y="307"></point>
      <point x="42" y="780" type="curve" smooth="yes"></point>
      <point x="42" y="1248"></point>
      <point x="331" y="1584"></point>
      <point x="760" y="1584" type="curve" smooth="yes"></point>
      <point x="1193" y="1584"></point>
      <point x="1484" y="1248"></point>
      <point x="1484" y="780" type="curve" smooth="yes"></point>
      <point x="1484" y="307"></point>
      <point x="1191" y="-24"></point>
    </contour>
  </outline>
</glyph>
<glyph name="Otilde" format="1">
  <advance width="1525"></advance>
  <unicode hex="00D5"></unicode>
  <outline>
    <contour>
      <point x="367" y="1698" type="line"></point>
      <point x="378" y="1834"></point>
      <point x="455" y="1945"></point>
      <point x="600" y="1945" type="curve" smooth="yes"></point>
      <point x="682" y="1945"></point>
      <point x="742" y="1902"></point>
      <point x="803" y="1878" type="curve" smooth="yes"></point>
      <point x="824" y="1869"></point>
      <point x="847" y="1865"></point>
      <point x="868" y="1865" type="curve" smooth="yes"></point>
      <point x="930" y="1865"></point>
      <point x="962" y="1911"></point>
      <point x="970" y="1971" type="curve"></point>
      <point x="1097" y="1971" type="line"></point>
      <point x="1082" y="1838"></point>
      <point x="1013" y="1718"></point>
      <point x="868" y="1718" type="curve" smooth="yes"></point>
      <point x="764" y="1718"></point>
      <point x="700" y="1798"></point>
      <point x="597" y="1798" type="curve" smooth="yes"></point>
      <point x="533" y="1798"></point>
      <point x="499" y="1764"></point>
      <point x="490" y="1698" type="curve"></point>
    </contour>
    <contour>
      <point x="760" y="186" type="curve" smooth="yes"></point>
      <point x="988" y="186"></point>
      <point x="1226" y="373"></point>
      <point x="1225" y="778" type="curve"></point>
      <point x="1225" y="1188"></point>
      <point x="988" y="1377"></point>
      <point x="760" y="1377" type="curve" smooth="yes"></point>
      <point x="532" y="1377"></point>
      <point x="301" y="1188"></point>
      <point x="301" y="778" type="curve" smooth="yes"></point>
      <point x="301" y="373"></point>
      <point x="532" y="186"></point>
    </contour>
    <contour>
      <point x="760" y="-24" type="curve" smooth="yes"></point>
      <point x="333" y="-24"></point>
      <point x="42" y="307"></point>
      <point x="42" y="780" type="curve" smooth="yes"></point>
      <point x="42" y="1248"></point>
      <point x="331" y="1584"></point>
      <point x="760" y="1584" type="curve" smooth="yes"></point>
      <point x="1193" y="1584"></point>
      <point x="1484" y="1248"></point>
      <point x="1484" y="780" type="curve" smooth="yes"></point>
      <point x="1484" y="307"></point>
      <point x="1191" y="-24"></point>
    </contour>
  </outline>
</glyph>
<glyph name="Odieresis" format="1">
  <advance width="1683"></advance>
  <unicode hex="00D6"></unicode>
  <outline>
    <contour>
      <point x="403" y="1814" type="curve" smooth="yes"></point>
      <point x="403" y="1855" type="line" smooth="yes"></point>
      <point x="403" y="1927"></point>
      <point x="462" y="1986"></point>
      <point x="534" y="1986" type="curve" smooth="yes"></point>
      <point x="606" y="1986"></point>
      <point x="664" y="1927"></point>
      <point x="664" y="1855" type="curve" smooth="yes"></point>
      <point x="664" y="1814" type="line" smooth="yes"></point>
      <point x="664" y="1742"></point>
      <point x="606" y="1684"></point>
      <point x="534" y="1684" type="curve" smooth="yes"></point>
      <point x="462" y="1684"></point>
      <point x="403" y="1742"></point>
    </contour>
    <contour>
      <point x="909" y="1814" type="curve" smooth="yes"></point>
      <point x="909" y="1855" type="line" smooth="yes"></point>
      <point x="909" y="1927"></point>
      <point x="968" y="1986"></point>
      <point x="1040" y="1986" type="curve" smooth="yes"></point>
      <point x="1112" y="1986"></point>
      <point x="1170" y="1927"></point>
      <point x="1170" y="1855" type="curve" smooth="yes"></point>
      <point x="1170" y="1814" type="line" smooth="yes"></point>
      <point x="1170" y="1742"></point>
      <point x="1112" y="1684"></point>
      <point x="1040" y="1684" type="curve" smooth="yes"></point>
      <point x="968" y="1684"></point>
      <point x="909" y="1742"></point>
    </contour>
    <contour>
      <point x="829" y="186" type="curve" smooth="yes"></point>
      <point x="1057" y="186"></point>
      <point x="1295" y="373"></point>
      <point x="1294" y="778" type="curve"></point>
      <point x="1294" y="1188"></point>
      <point x="1057" y="1377"></point>
      <point x="829" y="1377" type="curve" smooth="yes"></point>
      <point x="601" y="1377"></point>
      <point x="370" y="1188"></point>
      <point x="370" y="778" type="curve" smooth="yes"></point>
      <point x="370" y="373"></point>
      <point x="601" y="186"></point>
    </contour>
    <contour>
      <point x="829" y="-24" type="curve" smooth="yes"></point>
      <point x="402" y="-24"></point>
      <point x="111" y="307"></point>
      <point x="111" y="780" type="curve" smooth="yes"></point>
      <point x="111" y="1248"></point>
      <point x="400" y="1584"></point>
      <point x="829" y="1584" type="curve" smooth="yes"></point>
      <point x="1262" y="1584"></point>
      <point x="1553" y="1248"></point>
      <point x="1553" y="780" type="curve" smooth="yes"></point>
      <point x="1553" y="307"></point>
      <point x="1260" y="-24"></point>
    </contour>
  </outline>
</glyph>
<glyph name="multiply" format="1">
  <advance width="966"></advance>
  <unicode hex="00D7"></unicode>
  <outline>
    <contour>
      <point x="154" y="271" type="line"></point>
      <point x="33" y="392" type="line"></point>
      <point x="371" y="741" type="line"></point>
      <point x="33" y="1090" type="line"></point>
      <point x="154" y="1211" type="line"></point>
      <point x="481" y="862" type="line"></point>
      <point x="807" y="1211" type="line"></point>
      <point x="929" y="1089" type="line"></point>
      <point x="590" y="741" type="line"></point>
      <point x="929" y="393" type="line"></point>
      <point x="807" y="271" type="line"></point>
      <point x="481" y="619" type="line"></point>
    </contour>
  </outline>
</glyph>
<glyph name="Oslash" format="1">
  <advance width="1525"></advance>
  <unicode hex="00D8"></unicode>
  <outline>
    <contour>
      <point x="373" y="-291" type="line"></point>
      <point x="231" y="-239" type="line"></point>
      <point x="371" y="83.5663" type="line"></point>
      <point x="162" y="217.749"></point>
      <point x="36" y="467.978"></point>
      <point x="36" y="780" type="curve" smooth="yes"></point>
      <point x="36" y="1248"></point>
      <point x="325" y="1584"></point>
      <point x="754" y="1584" type="curve" smooth="yes"></point>
      <point x="844" y="1584"></point>
      <point x="929" y="1569.26"></point>
      <point x="1006" y="1541.65" type="curve"></point>
      <point x="1068" y="1684" type="line"></point>
      <point x="1215" y="1633" type="line"></point>
      <point x="1144" y="1472.71" type="line"></point>
      <point x="1352" y="1336.83"></point>
      <point x="1478" y="1086.78"></point>
      <point x="1478" y="780" type="curve" smooth="yes"></point>
      <point x="1478" y="307"></point>
      <point x="1185" y="-24"></point>
      <point x="754" y="-24" type="curve" smooth="yes"></point>
      <point x="665" y="-24"></point>
      <point x="583" y="-9.82177"></point>
      <point x="507" y="16.8592" type="curve"></point>
    </contour>
    <contour>
      <point x="754" y="186" type="curve" smooth="yes"></point>
      <point x="982" y="186"></point>
      <point x="1220" y="373"></point>
      <point x="1219" y="778" type="curve" smooth="yes"></point>
      <point x="1219" y="1000.08"></point>
      <point x="1149" y="1157.32"></point>
      <point x="1049" y="1254.81" type="curve"></point>
      <point x="595" y="217.494" type="line"></point>
      <point x="646" y="196.363"></point>
      <point x="700" y="186"></point>
    </contour>
    <contour>
      <point x="466" y="301.782" type="curve"></point>
      <point x="919" y="1342.58" type="line"></point>
      <point x="866" y="1365.68"></point>
      <point x="809" y="1377"></point>
      <point x="754" y="1377" type="curve" smooth="yes"></point>
      <point x="526" y="1377"></point>
      <point x="295" y="1188"></point>
      <point x="295" y="778" type="curve" smooth="yes"></point>
      <point x="295" y="554.75"></point>
      <point x="365" y="397.742"></point>
    </contour>
  </outline>
</glyph>
<glyph name="Ugrave" format="1">
  <advance width="1319"></advance>
  <unicode hex="00D9"></unicode>
  <outline>
    <contour>
      <point x="582" y="1704" type="line"></point>
      <point x="252" y="2022" type="line"></point>
      <point x="525" y="2022" type="line"></point>
      <point x="771" y="1704" type="line"></point>
    </contour>
    <contour>
      <point x="673" y="-24" type="curve" smooth="yes"></point>
      <point x="296" y="-24"></point>
      <point x="79" y="208"></point>
      <point x="79" y="547" type="curve" smooth="yes"></point>
      <point x="79" y="1560" type="line"></point>
      <point x="329" y="1560" type="line"></point>
      <point x="329" y="536" type="line" smooth="yes"></point>
      <point x="329" y="322"></point>
      <point x="456" y="184"></point>
      <point x="672" y="184" type="curve" smooth="yes"></point>
      <point x="877" y="184"></point>
      <point x="1000" y="319"></point>
      <point x="1000" y="529" type="curve" smooth="yes"></point>
      <point x="1000" y="1560" type="line"></point>
      <point x="1249" y="1560" type="line"></point>
      <point x="1249" y="558" type="line" smooth="yes"></point>
      <point x="1249" y="213"></point>
      <point x="1042" y="-24"></point>
    </contour>
  </outline>
</glyph>
<glyph name="Uacute" format="1">
  <advance width="1465"></advance>
  <unicode hex="00DA"></unicode>
  <outline>
    <contour>
      <point x="653" y="1646" type="line"></point>
      <point x="919" y="2022" type="line"></point>
      <point x="1238" y="2022" type="line"></point>
      <point x="876" y="1646" type="line"></point>
    </contour>
    <contour>
      <point x="742" y="-24" type="curve" smooth="yes"></point>
      <point x="365" y="-24"></point>
      <point x="148" y="208"></point>
      <point x="148" y="547" type="curve" smooth="yes"></point>
      <point x="148" y="1560" type="line"></point>
      <point x="398" y="1560" type="line"></point>
      <point x="398" y="536" type="line" smooth="yes"></point>
      <point x="398" y="322"></point>
      <point x="525" y="184"></point>
      <point x="741" y="184" type="curve" smooth="yes"></point>
      <point x="946" y="184"></point>
      <point x="1069" y="319"></point>
      <point x="1069" y="529" type="curve" smooth="yes"></point>
      <point x="1069" y="1560" type="line"></point>
      <point x="1318" y="1560" type="line"></point>
      <point x="1318" y="558" type="line" smooth="yes"></point>
      <point x="1318" y="213"></point>
      <point x="1111" y="-24"></point>
    </contour>
  </outline>
</glyph>
<glyph name="Ucircumflex" format="1">
  <advance width="1319"></advance>
  <unicode hex="00DB"></unicode>
  <outline>
    <contour>
      <point x="616" y="2011" type="line"></point>
      <point x="782" y="2011" type="line"></point>
      <point x="1070" y="1630" type="line"></point>
      <point x="844" y="1630" type="line"></point>
      <point x="699" y="1814" type="line"></point>
      <point x="547" y="1630" type="line"></point>
      <point x="329" y="1630" type="line"></point>
    </contour>
    <contour>
      <point x="673" y="-24" type="curve" smooth="yes"></point>
      <point x="296" y="-24"></point>
      <point x="79" y="208"></point>
      <point x="79" y="547" type="curve" smooth="yes"></point>
      <point x="79" y="1560" type="line"></point>
      <point x="329" y="1560" type="line"></point>
      <point x="329" y="536" type="line" smooth="yes"></point>
      <point x="329" y="322"></point>
      <point x="456" y="184"></point>
      <point x="672" y="184" type="curve" smooth="yes"></point>
      <point x="877" y="184"></point>
      <point x="1000" y="319"></point>
      <point x="1000" y="529" type="curve" smooth="yes"></point>
      <point x="1000" y="1560" type="line"></point>
      <point x="1249" y="1560" type="line"></point>
      <point x="1249" y="558" type="line" smooth="yes"></point>
      <point x="1249" y="213"></point>
      <point x="1042" y="-24"></point>
    </contour>
  </outline>
</glyph>
<glyph name="Udieresis" format="1">
  <advance width="1319"></advance>
  <unicode hex="00DC"></unicode>
  <outline>
    <contour>
      <point x="306" y="1814" type="curve" smooth="yes"></point>
      <point x="306" y="1855" type="line" smooth="yes"></point>
      <point x="306" y="1927"></point>
      <point x="365" y="1986"></point>
      <point x="437" y="1986" type="curve" smooth="yes"></point>
      <point x="509" y="1986"></point>
      <point x="567" y="1927"></point>
      <point x="567" y="1855" type="curve" smooth="yes"></point>
      <point x="567" y="1814" type="line" smooth="yes"></point>
      <point x="567" y="1742"></point>
      <point x="509" y="1684"></point>
      <point x="437" y="1684" type="curve" smooth="yes"></point>
      <point x="365" y="1684"></point>
      <point x="306" y="1742"></point>
    </contour>
    <contour>
      <point x="812" y="1814" type="curve" smooth="yes"></point>
      <point x="812" y="1855" type="line" smooth="yes"></point>
      <point x="812" y="1927"></point>
      <point x="871" y="1986"></point>
      <point x="943" y="1986" type="curve" smooth="yes"></point>
      <point x="1015" y="1986"></point>
      <point x="1073" y="1927"></point>
      <point x="1073" y="1855" type="curve" smooth="yes"></point>
      <point x="1073" y="1814" type="line" smooth="yes"></point>
      <point x="1073" y="1742"></point>
      <point x="1015" y="1684"></point>
      <point x="943" y="1684" type="curve" smooth="yes"></point>
      <point x="871" y="1684"></point>
      <point x="812" y="1742"></point>
    </contour>
    <contour>
      <point x="673" y="-24" type="curve" smooth="yes"></point>
      <point x="296" y="-24"></point>
      <point x="79" y="208"></point>
      <point x="79" y="547" type="curve" smooth="yes"></point>
      <point x="79" y="1560" type="line"></point>
      <point x="329" y="1560" type="line"></point>
      <point x="329" y="536" type="line" smooth="yes"></point>
      <point x="329" y="322"></point>
      <point x="456" y="184"></point>
      <point x="672" y="184" type="curve" smooth="yes"></point>
      <point x="877" y="184"></point>
      <point x="1000" y="319"></point>
      <point x="1000" y="529" type="curve" smooth="yes"></point>
      <point x="1000" y="1560" type="line"></point>
      <point x="1249" y="1560" type="line"></point>
      <point x="1249" y="558" type="line" smooth="yes"></point>
      <point x="1249" y="213"></point>
      <point x="1042" y="-24"></point>
    </contour>
  </outline>
</glyph>
<glyph name="Yacute" format="1">
  <advance width="1031"></advance>
  <unicode hex="00DD"></unicode>
  <outline>
    <contour>
      <point x="372" y="1646" type="line"></point>
      <point x="638" y="2022" type="line"></point>
      <point x="957" y="2022" type="line"></point>
      <point x="595" y="1646" type="line"></point>
    </contour>
    <contour>
      <point x="388" y="0" type="line"></point>
      <point x="388" y="612" type="line"></point>
      <point x="-120" y="1560" type="line"></point>
      <point x="150" y="1560" type="line"></point>
      <point x="511" y="838" type="line"></point>
      <point x="874" y="1560" type="line"></point>
      <point x="1132" y="1560" type="line"></point>
      <point x="638" y="614" type="line"></point>
      <point x="638" y="0" type="line"></point>
    </contour>
  </outline>
</glyph>
<glyph name="Thorn" format="1">
  <advance width="1237"></advance>
  <unicode hex="00DE"></unicode>
  <outline>
    <contour>
      <point x="103" y="0" type="line"></point>
      <point x="103" y="1456" type="line"></point>
      <point x="353" y="1456" type="line"></point>
      <point x="353" y="1270" type="line"></point>
      <point x="543" y="1270" type="line" smooth="yes"></point>
      <point x="901" y="1270"></point>
      <point x="1164" y="1210"></point>
      <point x="1164" y="855" type="curve" smooth="yes"></point>
      <point x="1164" y="528"></point>
      <point x="923" y="456"></point>
      <point x="588" y="456" type="curve" smooth="yes"></point>
      <point x="353" y="456" type="line"></point>
      <point x="353" y="0" type="line"></point>
    </contour>
    <contour>
      <point x="353" y="650" type="line"></point>
      <point x="586" y="650" type="line" smooth="yes"></point>
      <point x="807" y="650"></point>
      <point x="929" y="678"></point>
      <point x="929" y="852" type="curve" smooth="yes"></point>
      <point x="929" y="1072"></point>
      <point x="789" y="1080"></point>
      <point x="547" y="1080" type="curve" smooth="yes"></point>
      <point x="353" y="1080" type="line"></point>
    </contour>
  </outline>
</glyph>
<glyph name="germandbls" format="1">
  <advance width="1154"></advance>
  <unicode hex="00DF"></unicode>
  <outline>
    <contour>
      <point x="1098" y="321" type="curve" smooth="yes"></point>
      <point x="1098" y="97"></point>
      <point x="924" y="-23"></point>
      <point x="745" y="-23" type="curve" smooth="yes"></point>
      <point x="638" y="-23"></point>
      <point x="529" y="20"></point>
      <point x="455" y="109" type="curve"></point>
      <point x="492" y="263" type="line"></point>
      <point x="556" y="193"></point>
      <point x="640" y="159"></point>
      <point x="714" y="159" type="curve" smooth="yes"></point>
      <point x="797" y="159"></point>
      <point x="866" y="202"></point>
      <point x="877" y="287" type="curve" smooth="yes"></point>
      <point x="878" y="298"></point>
      <point x="879" y="308"></point>
      <point x="879" y="319" type="curve" smooth="yes"></point>
      <point x="879" y="467"></point>
      <point x="743" y="573"></point>
      <point x="524" y="711" type="curve" smooth="yes"></point>
      <point x="497" y="728"></point>
      <point x="480" y="763"></point>
      <point x="480" y="800" type="curve" smooth="yes"></point>
      <point x="480" y="836"></point>
      <point x="497" y="874"></point>
      <point x="539" y="897" type="curve" smooth="yes"></point>
      <point x="641" y="954"></point>
      <point x="722" y="977"></point>
      <point x="722" y="1113" type="curve" smooth="yes"></point>
      <point x="722" y="1128"></point>
      <point x="721" y="1145"></point>
      <point x="719" y="1163" type="curve" smooth="yes"></point>
      <point x="708" y="1259"></point>
      <point x="636" y="1312"></point>
      <point x="553" y="1312" type="curve" smooth="yes"></point>
      <point x="423" y="1312"></point>
      <point x="351" y="1220"></point>
      <point x="351" y="1032" type="curve" smooth="yes"></point>
      <point x="351" y="0" type="line"></point>
      <point x="109" y="0" type="line"></point>
      <point x="109" y="1044" type="line" smooth="yes"></point>
      <point x="109" y="1324"></point>
      <point x="306" y="1480"></point>
      <point x="554" y="1480" type="curve" smooth="yes"></point>
      <point x="811" y="1480"></point>
      <point x="951" y="1343"></point>
      <point x="961" y="1164" type="curve" smooth="yes"></point>
      <point x="962" y="1154"></point>
      <point x="962" y="1145"></point>
      <point x="962" y="1135" type="curve" smooth="yes"></point>
      <point x="962" y="960"></point>
      <point x="867" y="882"></point>
      <point x="727" y="820" type="curve" smooth="yes"></point>
      <point x="713" y="814"></point>
      <point x="704" y="794"></point>
      <point x="729" y="779" type="curve" smooth="yes"></point>
      <point x="933" y="656"></point>
      <point x="1098" y="574"></point>
    </contour>
  </outline>
</glyph>
